<?xml version="1.0" standalone="no"?>
<!DOCTYPE svg PUBLIC "-//W3C//DTD SVG 1.1//EN" "http://www.w3.org/Graphics/SVG/1.1/DTD/svg11.dtd" >
<svg xmlns="http://www.w3.org/2000/svg" xmlns:xlink="http://www.w3.org/1999/xlink" version="1.1">
<metadata></metadata>
<defs>
<font id="quartobold" horiz-adv-x="1374" >
<font-face units-per-em="2048" ascent="1638" descent="-410" />
<missing-glyph horiz-adv-x="268" />
<glyph unicode="&#xfb01;" horiz-adv-x="1116" d="M6 801v10l146 125l6 51q25 217 161.5 338t348.5 121q134 0 218.5 -48t84.5 -126q0 -65 -50.5 -108.5t-113.5 -43.5q-26 0 -47 13t-45 53l-105 178q-21 35 -39 35q-59 0 -100 -99.5t-35 -295.5l2 -64h426l137 47l7 -6q-7 -96 -7 -152v-761q0 -24 9 -31.5t47 -13.5l33 -7 v-16h-453v16l25 4q33 6 42 15.5t9 34.5v731h-273v-733q0 -24 9.5 -33t42.5 -12l53 -7v-16h-482v16l33 7q37 6 46.5 14t9.5 33v731h-146z" />
<glyph unicode="&#xfb02;" horiz-adv-x="1124" d="M6 801v10l146 125l6 51q24 215 157.5 337t331.5 122q126 0 207 -51l150 51l6 -4q-6 -85 -6 -156v-1218q0 -23 9.5 -31t45.5 -14l33 -7v-16h-453v16l25 4q33 6 42 15.5t9 34.5v731h-275v-733q0 -24 9.5 -33t42.5 -12l53 -7v-16h-482v16l33 7q37 6 46.5 14t9.5 33v731h-146 zM436 1004l2 -64h277v254l-119 174q-23 35 -37 35q-56 0 -92.5 -100.5t-30.5 -298.5z" />
<glyph unicode="&#xfb03;" horiz-adv-x="1679" d="M6 801v10l150 127l4 39q22 189 155 306.5t336 117.5q74 0 133.5 -22t92.5 -58q134 125 352 125q135 0 220 -48t85 -126q0 -65 -51.5 -108.5t-114.5 -43.5q-25 0 -46.5 13.5t-45.5 52.5l-105 178q-18 35 -38 35q-58 0 -99 -100t-37 -295l4 -64h424l140 47l4 -6 q-6 -83 -6 -152v-761q0 -24 9 -31.5t46 -13.5l33 -7v-16h-453v16l25 4q34 6 42.5 15t8.5 35v731h-270v-733q0 -25 8.5 -33.5t42.5 -11.5l51 -7v-16h-467v16l25 4q33 6 42 15.5t9 34.5v731h-275v-733q0 -24 9.5 -33t42.5 -12l53 -7v-16h-482v16l33 7q37 6 46.5 14t9.5 33v731 h-146zM436 987l2 -47h277l6 47q4 46 24 123q-16 16 -28 35l-117 180q-21 35 -37 35q-58 0 -94.5 -95.5t-32.5 -277.5z" />
<glyph unicode="&#xfb04;" horiz-adv-x="1687" d="M6 801v10l150 127l4 39q22 189 155 306.5t336 117.5q150 0 223 -80q131 125 334 125q126 0 207 -51l152 51l4 -4q-6 -86 -6 -156v-1218q0 -24 9.5 -31.5t47.5 -13.5l31 -7v-16h-453v16l25 4q34 6 42.5 15t8.5 35v731h-272v-733q0 -25 8.5 -33.5t42.5 -11.5l51 -7v-16 h-467v16l25 4q33 6 42 15.5t9 34.5v731h-275v-733q0 -24 9.5 -33t42.5 -12l53 -7v-16h-482v16l33 7q37 6 46.5 14t9.5 33v731h-146zM436 987l2 -47h277l6 47q4 46 24 123q-16 16 -28 35l-117 180q-21 35 -37 35q-58 0 -94.5 -95.5t-32.5 -277.5zM997 1004l4 -64h275v256 l-119 172q-23 35 -37 35q-56 0 -91.5 -100.5t-31.5 -298.5z" />
<glyph horiz-adv-x="0" />
<glyph horiz-adv-x="682" />
<glyph unicode=" "  horiz-adv-x="268" />
<glyph unicode="&#x09;" horiz-adv-x="268" />
<glyph unicode="&#xa0;" horiz-adv-x="268" />
<glyph unicode="!" horiz-adv-x="577" d="M113 1227q0 81 49.5 127.5t126.5 46.5t125.5 -46.5t48.5 -127.5q0 -88 -70 -361q-55 -185 -76 -305l-20 -137h-18l-19 137q-22 123 -76 305q-71 265 -71 361zM117 141q0 65 50 114.5t126 49.5q67 0 117.5 -48.5t50.5 -111.5q0 -67 -49 -116t-123 -49q-72 0 -122 47 t-50 114z" />
<glyph unicode="&#x22;" horiz-adv-x="874" d="M129 758q6 52 15.5 135.5t13.5 124.5l14 156q6 79 34.5 120t90.5 41q55 0 92 -29.5t37 -78.5q0 -52 -49 -123l-74 -115q-13 -21 -73 -108.5t-87 -128.5zM481 758q6 52 15.5 135.5t13.5 124.5l14 156q6 79 34.5 120t90.5 41q55 0 92 -29.5t37 -78.5q0 -52 -49 -123 l-74 -115q-14 -21 -73 -108.5t-86 -128.5z" />
<glyph unicode="#" horiz-adv-x="1331" d="M31 436v41h358l125 359h-362v41h376l160 452h41l-160 -452h346l160 452h43l-160 -452h342v-41h-356l-125 -359h361v-41h-375l-160 -452h-43l160 452h-346l-160 -452h-41l160 452h-344zM430 477h346l125 359h-346z" />
<glyph unicode="$" horiz-adv-x="1077" d="M133 453l19 6q90 -225 159.5 -322.5t169.5 -113.5q7 84 21 247t18 213q-13 9 -37 27t-34 25q-64 48 -97.5 74t-75 65.5t-61 70.5t-33.5 73t-14 89q0 129 112 219.5t310 90.5h2l16 188l37 -2l-16 -186q78 -4 154.5 -22.5t123.5 -41.5q11 -98 15 -348l-19 -4 q-74 188 -136.5 272t-141.5 101l-35 -400q17 -13 76 -57q82 -60 129 -99.5t89 -88t59.5 -98.5t17.5 -112q0 -145 -118.5 -240t-320.5 -95h-12l-16 -197l-33 2q6 56 16 197q-152 9 -323 86q-21 178 -21 381zM399 1022q0 -62 38.5 -111.5t119.5 -111.5l33 381h-19 q-81 0 -126.5 -43t-45.5 -115zM514 20h8q93 0 149 51.5t56 141.5q0 68 -41.5 121.5t-134.5 124.5z" />
<glyph unicode="%" horiz-adv-x="1753" d="M121 965q0 147 101.5 240t266.5 93q156 0 250.5 -89t94.5 -218q0 -147 -102 -240.5t-265 -93.5q-158 0 -252 89.5t-94 218.5zM344 -6l1024 1304l39 -18l-1024 -1305zM344 981q0 -128 37 -210.5t104 -82.5q65 0 96 79.5t31 207.5q0 127 -37.5 210t-103.5 83t-96.5 -79 t-30.5 -208zM920 285q0 147 101.5 240t264.5 93q157 0 250.5 -88.5t93.5 -218.5q0 -147 -101.5 -240.5t-264.5 -93.5q-157 0 -250.5 89t-93.5 219zM1141 301q0 -128 37 -210.5t104 -82.5q66 0 96.5 79t30.5 208q0 128 -37 210.5t-104 82.5q-66 0 -96.5 -79t-30.5 -208z" />
<glyph unicode="&#x26;" horiz-adv-x="1703" d="M115 338q0 75 30 137.5t83.5 107t108 74t122.5 54.5q-180 128 -180 282q0 98 61.5 173.5t152.5 112t191 36.5q62 0 120 -12.5t109 -38.5t82 -72t31 -105q0 -39 -18.5 -75.5t-46.5 -63.5t-66.5 -51.5t-71 -39.5t-67.5 -28q149 -97 240.5 -176t174.5 -194q142 243 142 313 q0 16 -20 30t-72 32l-95 32v13h557v-13l-84 -30q-78 -27 -115 -55.5t-124 -135.5l-172 -209q6 -10 20 -30.5t21 -32.5q71 -113 108.5 -168.5t73 -91.5t60.5 -44t65 -8q50 0 145 27l9 -14q-49 -27 -178 -67t-228 -40q-40 0 -71 9t-52.5 21t-45.5 40.5t-39.5 51.5t-44.5 70 q-8 14 -13 21q-4 7 -13.5 21.5t-13.5 21.5q-60 -66 -108 -109t-105 -78.5t-120.5 -52t-139.5 -16.5q-72 0 -142 23.5t-129 67.5t-95.5 117t-36.5 163zM379 465q0 -132 90.5 -228t247.5 -96q141 0 258 109q-89 135 -185.5 223.5t-277.5 202.5q-4 3 -8 5.5t-9.5 5.5t-9.5 5 q-106 -77 -106 -227zM504 1124q0 -75 51.5 -136t169.5 -138l10 -6q28 45 47 108.5t19 116.5q0 61 -16.5 105.5t-42 65t-49 29.5t-46.5 9q-68 0 -105.5 -45.5t-37.5 -108.5z" />
<glyph unicode="'" horiz-adv-x="514" d="M129 758q6 52 15.5 135.5t13.5 124.5l14 156q6 79 34.5 120t90.5 41q55 0 92 -29.5t37 -78.5q0 -52 -49 -123l-74 -115q-13 -21 -73 -108.5t-87 -128.5z" />
<glyph unicode="(" horiz-adv-x="868" d="M143 578q0 175 47 326.5t119.5 257t172 192t193 137.5t195.5 88l7 -16q-96 -47 -174 -127.5t-139 -199t-94.5 -286.5t-33.5 -372t33.5 -372t94.5 -286.5t139 -198.5t174 -127l-7 -18q-71 25 -138 58t-141 83t-137.5 108.5t-121.5 138t-99 169.5t-65.5 204.5t-24.5 240.5z " />
<glyph unicode=")" horiz-adv-x="868" d="M-8 -406q96 47 174 127.5t138.5 199.5t94 287t33.5 372t-33.5 372t-94 286t-138.5 198t-174 127l6 18q102 -37 195.5 -88t193 -137.5t172 -192t119.5 -257t47 -326.5q0 -126 -24.5 -240.5t-65.5 -204.5t-99 -169.5t-121.5 -138t-137.5 -108.5t-141 -83t-138 -58z" />
<glyph unicode="*" horiz-adv-x="841" d="M94 965q5 34 33 49q20 12 99 22t134 29l52 18l-52 19q-57 20 -135 29.5t-98 19.5q-29 17 -33 50t15 65q18 31 47 43t59 -4q18 -12 65.5 -75t94.5 -102l41 -36l-8 53q-11 59 -42.5 132t-31.5 95q0 33 25 53.5t63 20.5q36 0 62 -20.5t26 -53.5q0 -22 -31.5 -95t-42.5 -132 l-10 -55l41 38q47 39 94.5 102t65.5 75q30 16 59 4t47 -43q19 -32 15 -65t-33 -50q-20 -10 -98.5 -19.5t-135.5 -29.5l-51 -19l51 -18q55 -19 134.5 -29t99.5 -22q28 -15 33 -49t-15 -64q-18 -32 -47 -43.5t-59 4.5q-18 11 -66 74t-94 102l-41 37l10 -55q11 -57 42.5 -130.5 t31.5 -96.5q0 -31 -26 -51.5t-62 -20.5q-37 0 -62.5 20t-25.5 52q0 23 31.5 96.5t42.5 130.5l8 53l-41 -35q-46 -39 -94 -102t-66 -74q-30 -16 -59 -4.5t-47 43.5q-20 30 -15 64z" />
<glyph unicode="+" horiz-adv-x="1015" d="M102 471v45h383v383h45v-383h383v-45h-383v-383h-45v383h-383z" />
<glyph unicode="," horiz-adv-x="509" d="M25 -334q141 51 199.5 123t58.5 166q0 37 -8.5 50t-30.5 13l-56 -2q-40 -1 -68 10t-41 30.5t-18.5 39t-5.5 41.5q0 73 48 123.5t133 50.5q81 0 142.5 -63t61.5 -191q0 -156 -112 -264t-299 -141z" />
<glyph unicode="-" horiz-adv-x="692" d="M86 410v206h522v-206h-522z" />
<glyph unicode="." horiz-adv-x="499" d="M74 145q0 66 51.5 118t126.5 52q71 0 122.5 -49t51.5 -116q0 -70 -50 -120t-124 -50q-75 0 -126.5 47.5t-51.5 117.5z" />
<glyph unicode="/" horiz-adv-x="825" d="M-37 -475l774 2122l45 -17l-774 -2122z" />
<glyph unicode="0" horiz-adv-x="1187" d="M66 459q0 228 152.5 380t391.5 152q155 0 274 -70.5t178.5 -181t59.5 -239.5q0 -228 -152.5 -380.5t-391.5 -152.5q-117 0 -215 41t-162 110t-99.5 157t-35.5 184zM379 479q0 -132 26 -238.5t78 -171.5t121 -65q57 0 98 36.5t64.5 103t34 147t10.5 178.5q0 134 -26 242.5 t-78.5 174.5t-122.5 66q-55 0 -96 -37t-64 -103.5t-34 -149t-11 -183.5z" />
<glyph unicode="1" horiz-adv-x="763" d="M49 0v18l70 9q62 7 81 18.5t27 44.5q13 58 13 213v352q0 155 -13 213q-8 33 -27 45t-81 19l-70 8v18h666v-18l-72 -8q-60 -7 -79 -19t-27 -45q-13 -58 -13 -213v-352q0 -155 13 -213q8 -33 26.5 -44.5t79.5 -18.5l72 -9v-18h-666z" />
<glyph unicode="2" horiz-adv-x="942" d="M18 12q231 179 345.5 288t150 173t35.5 137q0 83 -57.5 137t-153.5 54q-143 0 -266 -139l-13 10q24 47 51.5 88.5t69 85t88.5 74.5t110 51t132 20q137 0 229 -77.5t92 -200.5q0 -52 -24.5 -101.5t-60 -89t-101.5 -87.5t-120.5 -82t-145.5 -88q-32 -19 -49 -29l4 -7 l391 11q70 3 91.5 11.5t47.5 37.5l27 30l10 -4l-115 -315h-766z" />
<glyph unicode="3" horiz-adv-x="901" d="M10 -231q0 54 39.5 91.5t93.5 37.5q21 0 34.5 -8t27.5 -35l82 -168q23 -45 43 -45q35 0 73.5 21t73.5 59t57.5 101.5t22.5 139.5q0 144 -96.5 227t-255.5 101l-4 12l32 14q79 33 135.5 70t85 66.5t44.5 63t19 52.5t3 43q0 87 -60 145t-161 58q-130 0 -242 -108l-12 12 q164 272 422 272q140 0 229.5 -74t89.5 -188q0 -44 -17.5 -85t-46.5 -74t-70 -63t-84.5 -52.5t-94.5 -42.5q45 -9 89 -24.5t93.5 -44.5t86 -66.5t61 -94.5t24.5 -125q0 -101 -49 -187t-128.5 -142t-178.5 -87.5t-201 -31.5q-127 0 -193.5 44t-66.5 116z" />
<glyph unicode="4" horiz-adv-x="1067" d="M-14 63l694 906h111v-758h258l-29 -160h-229v-430h-269v430h-530zM166 217l4 -6h352v467l-6 2z" />
<glyph unicode="5" horiz-adv-x="933" d="M31 -231q0 54 39.5 91.5t93.5 37.5q22 0 34.5 -8t22.5 -31l78 -172q12 -26 19.5 -34.5t19.5 -8.5q38 0 81.5 17.5t85.5 51t69.5 91.5t27.5 128t-32.5 124t-114.5 94q-115 57 -367 88l-2 4l180 716h543q17 0 26 8.5t19 30.5l12 25l17 -6l-62 -277q-4 -24 -14.5 -31.5 t-40.5 -7.5h-526l-50 -208q256 -28 406 -103q229 -113 229 -334q0 -130 -77.5 -234t-197 -158t-253.5 -54q-130 0 -198 43t-68 117z" />
<glyph unicode="6" horiz-adv-x="1083" d="M78 532q0 180 67.5 337t186.5 268t291.5 169.5t373.5 47.5l-2 -23q-227 -13 -380.5 -156.5t-213.5 -379.5q102 41 211 41q58 0 113 -12t109.5 -41.5t95 -73.5t65.5 -114.5t25 -158.5q0 -105 -39.5 -194.5t-105 -149t-149 -92.5t-173.5 -33q-220 0 -347.5 150t-127.5 415z M367 502q0 -134 19.5 -236t51 -158t66 -83t69.5 -27q78 0 124 98.5t46 268.5q0 75 -13.5 137t-35 102.5t-51 71.5t-58.5 47.5t-61 26.5t-54 13t-42 3q-23 0 -35 -2q-26 -133 -26 -262z" />
<glyph unicode="7" horiz-adv-x="909" d="M41 553q57 212 98 471l17 -2l2 -33q2 -20 6 -25.5t22 -5.5h676l6 -6l-419 -1331h-287l-4 6l587 1078h-501q-86 0 -109 -23q-10 -10 -59 -98l-21 -37z" />
<glyph unicode="8" horiz-adv-x="1038" d="M76 291q0 212 280 321q-233 142 -233 359q0 90 37 164.5t97.5 121.5t135.5 73t154 26q171 0 280 -87t109 -220q0 -193 -260 -297q89 -51 147 -97.5t88.5 -92.5t42 -88.5t11.5 -96.5q0 -89 -39 -166.5t-103 -130.5t-146 -83t-167 -30q-58 0 -116.5 10.5t-116.5 35.5 t-102 61.5t-71.5 92.5t-27.5 124zM303 299q0 -130 64 -211.5t176 -81.5q90 0 146 65.5t56 164.5q0 91 -71 166.5t-275 185.5l-2 2q-94 -127 -94 -291zM348 1114q0 -44 10 -79.5t39 -78t87.5 -87.5t148.5 -93l6 -4q42 58 63 133t21 144q0 119 -45.5 195.5t-140.5 76.5 q-92 0 -140.5 -62.5t-48.5 -144.5z" />
<glyph unicode="9" horiz-adv-x="1083" d="M63 522q0 105 39.5 194.5t105 149t149 92.5t173.5 33q220 0 348 -150t128 -415q0 -180 -67.5 -337t-186.5 -267.5t-292 -169t-374 -47.5l2 22q226 13 380 157t214 380q-102 -41 -211 -41q-58 0 -113 12t-109.5 41t-95 73.5t-65.5 114.5t-25 158zM340 594q0 -75 13.5 -137 t35 -102.5t51 -71.5t58.5 -47.5t61 -26.5t54 -13t42 -3q23 0 35 2q27 138 27 262q0 134 -19.5 236t-51.5 158t-66.5 83t-69.5 27q-78 0 -124 -98.5t-46 -268.5z" />
<glyph unicode=":" horiz-adv-x="536" d="M92 145q0 66 51.5 118t128.5 52q69 0 120.5 -51t51.5 -117q0 -70 -50 -118.5t-124 -48.5t-126 47.5t-52 117.5zM92 791q0 68 52.5 120t129.5 52q69 0 119.5 -50t50.5 -118q0 -69 -50 -119.5t-124 -50.5q-75 0 -126.5 48.5t-51.5 117.5z" />
<glyph unicode=";" horiz-adv-x="546" d="M43 -334q140 51 199 123.5t59 165.5q0 38 -8.5 50.5t-32.5 12.5l-55 -2q-39 -1 -66.5 10t-41 30.5t-18.5 39t-5 41.5q0 73 47.5 123.5t132.5 50.5q80 0 141.5 -63t61.5 -191q0 -156 -111.5 -264t-298.5 -141zM84 795q0 65 51 116.5t127 51.5q70 0 121 -49.5t51 -114.5 q0 -71 -50 -121.5t-124 -50.5t-125 48t-51 120z" />
<glyph unicode="&#x3c;" horiz-adv-x="1048" d="M66 475v37l790 401l21 -41l-750 -378l752 -379l-23 -41z" />
<glyph unicode="=" horiz-adv-x="1015" d="M102 307v45h811v-45h-811zM102 635v45h811v-45h-811z" />
<glyph unicode="&#x3e;" horiz-adv-x="1048" d="M170 115l752 379l-750 378l21 41l790 -401v-37l-790 -401z" />
<glyph unicode="?" horiz-adv-x="808" d="M68 1229q0 67 54.5 119.5t147.5 52.5q128 0 237 -65.5t171.5 -174t62.5 -233.5q0 -124 -52.5 -188.5t-176.5 -98.5l-203 -55q-29 -8 -36.5 -21.5t-8.5 -66.5l-2 -74h-20l-25 154q-29 170 -29 192q0 40 19 59.5t76 38.5l194 60q72 23 102.5 55.5t30.5 85.5 q0 75 -43.5 155.5t-79.5 80.5q-11 0 -50 -33q-7 -6 -11 -10l-158 -138q-53 -43 -90 -43q-43 0 -76.5 41t-33.5 107zM98 141q0 65 50 114.5t126 49.5q68 0 118 -48t50 -112q0 -67 -49 -116t-121 -49t-123 47t-51 114z" />
<glyph unicode="@" horiz-adv-x="1824" d="M86 365q0 151 44 296t128.5 267.5t198.5 215t263.5 145t313.5 52.5q161 0 295.5 -49t223.5 -132t137.5 -192t48.5 -231t-46.5 -230t-125.5 -186.5t-180 -136t-211.5 -86t-219.5 -28.5q-41 0 -59 6t-18 22q0 28 45 144l61 159l-10 5q-78 -138 -160 -220 q-114 -114 -223 -114q-63 0 -102 37.5t-39 121.5q0 118 77 272t181 257q153 153 299 153q51 0 86 -23.5t47 -62.5h6l43 111h225l2 -6l-250 -651q-2 -4 -15.5 -36.5t-20.5 -53.5t-7 -31q0 -17 33 -17q46 0 111.5 23.5t140 74.5t138 119t105.5 168.5t42 212.5 q0 114 -46.5 215.5t-130 178t-208.5 121t-273 44.5q-196 0 -368 -78.5t-288.5 -208t-183.5 -299t-67 -349.5q0 -168 56 -304t155.5 -224.5t234.5 -135.5t295 -47q423 0 717 305l25 -27q-302 -317 -742 -317q-169 0 -312 50t-248 143.5t-164.5 236.5t-59.5 320zM694 242 q0 -24 10.5 -38t28.5 -14q35 0 96 58q95 95 189 280t94 273q0 69 -57 69q-37 0 -86 -49q-87 -87 -181 -284t-94 -295z" />
<glyph unicode="A" d="M-72 0v12l68 27q85 31 123.5 76.5t91.5 179.5l348 872q-24 56 -41 84l2 4q77 29 152.5 76t126.5 101h6l401 -1227q35 -105 63.5 -136t96.5 -42l66 -9v-18h-699v18l70 9q53 6 74.5 20t21.5 39q0 23 -14 70l-109 344h-405l-25 -74q-84 -244 -84 -305q0 -26 20.5 -43 t84.5 -39l79 -27v-12h-518zM387 549h373l-158 495q-14 46 -24 72z" />
<glyph unicode="B" horiz-adv-x="1351" d="M41 0v18l65 9q57 7 75 18.5t26 42.5q12 50 12 215v760q0 167 -12 217q-8 31 -26 42.5t-75 18.5l-65 9v18h543q622 0 622 -321q0 -104 -83 -176t-214 -103v-6q72 -14 135.5 -41.5t119 -71t88 -109.5t32.5 -147q0 -110 -57 -195.5t-150 -131.5q-132 -66 -377 -66h-659z M547 291q0 -161 12 -211q6 -27 29 -38t74 -11h6q126 0 204 92.5t78 236.5q0 172 -110 260q-95 76 -244 76q-24 0 -49 -2v-403zM547 725q338 0 338 313q0 43 -9.5 83.5t-33 81t-58.5 70t-90 47.5q-52 17 -116 17h-7h-16q-8 -54 -8 -153v-459z" />
<glyph unicode="C" horiz-adv-x="1449" d="M66 670q0 151 54 284.5t152 232.5t243.5 156.5t318.5 57.5q100 0 240 -25.5t145 -25.5q20 0 34 26l13 23h14q32 -266 39 -506l-16 -2q-67 138 -120.5 225.5t-111.5 143.5q-55 56 -113.5 81t-134.5 25q-81 0 -152 -38.5t-128 -115t-90 -204t-33 -291.5q0 -199 52 -361 t147 -256t215 -94q130 0 253 123q121 119 261 414l14 -8q-6 -107 -27 -264.5t-32 -178.5q-253 -121 -488 -121q-157 0 -293.5 47.5t-238 135t-159.5 220.5t-58 296z" />
<glyph unicode="D" horiz-adv-x="1562" d="M41 0v18l65 9q57 7 75 18.5t26 42.5q12 50 12 215v762q0 165 -12 215q-8 31 -26 42.5t-75 18.5l-65 9v18h606q407 0 631.5 -172t224.5 -502q0 -68 -14 -136t-45.5 -138t-78 -133t-116 -118t-154.5 -95t-198 -63t-242 -23q-83 0 -254 6t-360 6zM543 279q0 -168 10 -209 q6 -25 24 -35t66 -10h19q105 0 183.5 30t143.5 95q85 85 127.5 216.5t42.5 290.5q0 230 -80 387.5t-225 229.5q-70 35 -140.5 48t-166.5 15q-4 -27 -4 -166v-892z" />
<glyph unicode="E" horiz-adv-x="1290" d="M41 0v18l65 9q57 7 75 18.5t26 42.5q12 50 12 215v760q0 167 -12 217q-8 31 -26 42.5t-75 18.5l-65 9v18h1124l-8 -399l-14 -4q-57 120 -87.5 174t-60.5 84q-80 80 -293 98l-155 10v-616l112 6q79 4 121.5 18t71.5 43q43 43 76 123l26 66l15 -4l-13 -537l-14 -2l-27 66 q-40 98 -69 127q-26 26 -65.5 38.5t-116.5 16.5l-117 6v-391q0 -164 10 -205q7 -30 25 -40.5t59 -10.5q78 0 171 17t142 42q56 27 93 64q54 58 180 254l14 -9l-80 -403h-1120z" />
<glyph unicode="F" horiz-adv-x="1251" d="M41 0v18l65 9q57 7 75 18.5t26 42.5q12 50 12 215v760q0 167 -12 217q-8 31 -26 42.5t-75 18.5l-65 9v18h1124l-8 -399l-14 -4q-57 120 -87.5 174t-60.5 84q-80 80 -293 98l-155 10v-633l112 7q79 4 121 17.5t70 41.5q46 50 78 125l26 65l15 -4l-13 -536l-14 -2l-27 63 q-35 95 -69 129q-25 25 -63 38t-117 17l-119 7v-363q0 -165 12 -215q8 -32 27 -44.5t76 -16.5l92 -9v-18h-713z" />
<glyph unicode="G" horiz-adv-x="1507" d="M66 670q0 151 54.5 284t152.5 232.5t245.5 157t323.5 57.5q104 0 245.5 -25.5t145.5 -25.5q14 0 20.5 5.5t14.5 20.5l12 23h14q35 -288 41 -506l-16 -2q-70 140 -123.5 226.5t-110.5 142.5q-56 57 -114 81.5t-137 24.5q-88 0 -162 -39t-131 -116.5t-89 -203.5t-32 -290 q0 -200 56 -357.5t168.5 -250.5t264.5 -93q69 0 107 11q6 38 6 98v227q0 141 -10 180q-8 32 -29 46.5t-78 21.5l-82 8v19h670v-19l-63 -8q-45 -7 -63 -21.5t-26 -46.5q-10 -39 -10 -180v-196q0 -34 9 -45t32 -11q20 0 62 11l4 -19q-119 -46 -278.5 -83.5t-311.5 -37.5 q-227 0 -402.5 81.5t-277.5 241.5t-102 376z" />
<glyph unicode="H" horiz-adv-x="1638" d="M41 0v18l65 9q57 7 75 18.5t26 42.5q12 50 12 217v758q0 167 -12 217q-8 31 -26 42.5t-75 18.5l-65 9v18h682v-18l-72 -9q-51 -6 -67.5 -17.5t-24.5 -43.5q-12 -50 -12 -217v-330h547v330q0 155 -15 217q-8 32 -24.5 43.5t-67.5 17.5l-69 9v18h679v-18l-65 -9 q-55 -7 -72.5 -18.5t-25.5 -42.5q-15 -62 -15 -217v-758q0 -155 15 -217q8 -31 25.5 -42.5t72.5 -18.5l65 -9v-18h-679v18l69 9q51 6 67.5 17.5t24.5 43.5q15 62 15 217v379h-547v-379q0 -167 12 -217q8 -32 24.5 -43.5t67.5 -17.5l72 -9v-18h-682z" />
<glyph unicode="I" horiz-adv-x="796" d="M55 0v18l68 9q55 7 72.5 18.5t25.5 42.5q15 62 15 215v762q0 153 -15 215q-8 31 -25.5 42.5t-72.5 18.5l-68 9v18h684v-18l-65 -9q-56 -7 -73.5 -18.5t-25.5 -42.5q-14 -58 -14 -215v-762q0 -157 14 -215q8 -31 25.5 -42.5t73.5 -18.5l65 -9v-18h-684z" />
<glyph unicode="J" horiz-adv-x="819" d="M-111 -254q0 61 48 107.5t116 46.5q38 0 60 -37l88 -185q13 -30 26 -30q23 0 35 49q17 64 17 237l2 1131q0 161 -13 215q-8 31 -26.5 42.5t-79.5 18.5l-66 9v18h688v-18l-67 -9q-55 -7 -73 -18.5t-26 -42.5q-14 -58 -14 -215v-743q0 -140 -17 -237.5t-61 -186.5 q-29 -58 -68 -109t-91.5 -97t-121.5 -73t-145 -27q-96 0 -153.5 42t-57.5 112z" />
<glyph unicode="K" horiz-adv-x="1484" d="M41 0v18l65 9q57 7 75 18.5t26 42.5q12 50 12 215v762q0 165 -12 215q-8 31 -26 42.5t-75 18.5l-65 9v18h684v-18l-68 -9q-55 -7 -72.5 -18.5t-25.5 -42.5q-12 -50 -12 -215v-397l289 319q82 87 148.5 175.5t66.5 109.5q0 13 -19 25t-65 30l-78 29v12h538v-12l-67 -23 q-91 -30 -141 -61t-142 -119l-276 -272l463 -678q49 -70 79.5 -103.5t61.5 -50.5q37 -19 123 -33v-16l-82 -4q-75 0 -180 -3t-131 -3q-74 0 -107 19t-84 95l-319 488q-24 35 -36.5 45t-33.5 10h-8v-344q0 -165 12 -215q8 -31 25.5 -42.5t72.5 -18.5l68 -9v-18h-684z" />
<glyph unicode="L" horiz-adv-x="1280" d="M41 0v18l65 9q57 7 75 18.5t26 42.5q12 50 12 215v762q0 165 -12 215q-8 31 -26 42.5t-75 18.5l-65 9v18h684v-18l-68 -9q-55 -7 -72.5 -18.5t-25.5 -42.5q-12 -50 -12 -215v-760q0 -180 10 -221q6 -28 24 -39.5t60 -11.5q68 0 149.5 18.5t149.5 52.5q42 20 80 58 q100 104 207 284l14 -8l-84 -438h-1116z" />
<glyph unicode="M" horiz-adv-x="1855" d="M4 0v12l78 29q87 29 113 72t32 161l64 910q-31 65 -68.5 98t-103.5 53l-56 17v16h533q7 -86 80 -270l268 -676l250 631q69 177 86 315h514v-18l-41 -11q-61 -16 -93.5 -35t-49.5 -49t-18 -74v-32q0 -34 1 -78l35 -780q6 -132 21 -195q8 -32 29.5 -47t80.5 -24l58 -7v-18 h-670v18l57 7q74 10 90 41q12 24 12 98q0 23 -1 51l-33 905l-443 -1130h-26l-479 1120l-5 -840q0 -119 22.5 -159.5t107.5 -69.5l79 -29v-12h-524z" />
<glyph unicode="N" horiz-adv-x="1554" d="M4 1352v16h459l815 -919h4l-20 632q-5 125 -31 172.5t-117 75.5l-72 27v12h525v-12l-70 -27q-91 -28 -117.5 -75.5t-31.5 -172.5l-41 -1114h-41l-973 1116l24 -809q3 -120 28.5 -163t117.5 -72l72 -27v-12h-525v12l72 27q91 29 116.5 72t28.5 163l25 859l-70 79 q-57 64 -89 89.5t-81 46.5z" />
<glyph unicode="O" horiz-adv-x="1570" d="M66 670q0 116 31.5 224.5t93 200t147.5 160.5t201.5 107.5t246.5 38.5q200 0 362 -84t258.5 -245.5t96.5 -373.5q0 -145 -50.5 -277.5t-141 -233t-227.5 -160.5t-300 -60q-149 0 -280.5 49.5t-228.5 138.5t-153 222.5t-56 292.5zM420 727q0 -205 49 -370t140 -260 t208 -95q103 0 179 81t115.5 225.5t39.5 332.5q0 205 -49.5 370t-140.5 260t-207 95q-104 0 -180 -81.5t-115 -225t-39 -332.5z" />
<glyph unicode="P" horiz-adv-x="1282" d="M41 0v18l65 9q57 7 75 18.5t26 42.5q12 50 12 215v754q0 165 -12 215q-8 31 -32.5 45t-84.5 18l-49 2v19q246 20 514 20q694 0 694 -399q0 -184 -175 -296q-172 -110 -441 -110h-10v15q151 28 223 133.5t72 263.5q0 161 -94.5 261.5t-270.5 101.5q-6 -76 -6 -230v-813 q0 -170 12 -219q8 -31 27.5 -42t77.5 -17l79 -7v-18h-702z" />
<glyph unicode="Q" horiz-adv-x="1568" d="M66 670q0 116 31.5 224.5t93 200t147.5 160.5t201.5 107.5t246.5 38.5q151 0 282 -49t227.5 -138.5t152 -222.5t55.5 -293q0 -204 -96 -377t-266 -266q158 -123 288.5 -185.5t210.5 -62.5q72 0 158 35l39 17l8 -13l-104 -67q-116 -76 -186.5 -106.5t-139.5 -30.5 q-79 0 -187.5 45t-191 98.5t-164 108.5t-96.5 63q-16 9 -65 14q-133 11 -249.5 63.5t-205 139.5t-139.5 215t-51 281zM420 727q0 -205 49 -370t140 -260t208 -95q104 0 179.5 81.5t114 225t38.5 332.5q0 206 -48 370.5t-138.5 259.5t-208.5 95q-104 0 -180 -81.5t-115 -225 t-39 -332.5z" />
<glyph unicode="R" horiz-adv-x="1425" d="M41 0v18l65 9q57 7 75 18.5t26 42.5q12 50 12 215v764q0 153 -14 221q-7 26 -29 38.5t-72 21.5l-63 10v20q195 -8 512 -8q672 0 672 -348q0 -216 -269 -330q87 -157 208.5 -349t185.5 -257q32 -32 67.5 -44.5t116.5 -25.5v-16l-117 -4q-230 -10 -250 -10q-52 0 -86.5 8 t-64.5 33t-51 55.5t-56 89.5l-223 395q-26 42 -41 53t-43 11q-4 0 -20.5 -1t-26.5 -1h-8v-326q0 -170 12 -219q8 -31 27.5 -42t77.5 -17l79 -7v-18h-702zM547 659h7q63 0 120 18q60 19 111 58t81.5 108.5t30.5 160.5q0 72 -19.5 131.5t-60 105.5t-107.5 71.5t-157 26.5 q-6 -77 -6 -231v-449z" />
<glyph unicode="S" horiz-adv-x="1110" d="M86 471l16 6q121 -271 203.5 -368t198.5 -97q96 0 157.5 65t61.5 167q0 89 -62.5 164.5t-232.5 212.5q-58 46 -92 76.5t-75.5 74t-63.5 81.5t-37 87.5t-15 103.5q0 69 31 131.5t89 111t148.5 77.5t202.5 29q94 0 184 -18t150 -46q9 -52 17 -164.5t10 -197.5l-16 -4 q-103 228 -175.5 310.5t-164.5 82.5q-86 0 -138.5 -55.5t-52.5 -135.5q0 -37 13 -72.5t32 -64.5t56.5 -66.5t71 -65.5t91.5 -75q87 -69 140.5 -119.5t96.5 -107t61 -114.5t18 -128q0 -165 -130.5 -271t-353.5 -106q-190 0 -405 88q-14 76 -24.5 208t-10.5 200z" />
<glyph unicode="T" horiz-adv-x="1484" d="M23 911l98 519l14 -3l6 -28q6 -25 18.5 -32t47.5 -7h1093q52 0 70 9.5t31 35.5l12 25h14l9 -521l-13 -2q-93 204 -142.5 280.5t-100.5 102.5q-66 31 -191 33l-80 4v-1024q0 -161 13 -215q8 -32 28.5 -43.5t83.5 -17.5l92 -9v-18h-761v18l92 9q63 6 83.5 17.5t28.5 43.5 q13 54 13 215v1024l-70 -4q-104 -3 -154 -29q-29 -14 -61 -42.5t-56 -55t-65 -84.5t-63 -90.5t-76 -114.5z" />
<glyph unicode="U" horiz-adv-x="1484" d="M20 1350v18h723v-18l-94 -9q-58 -6 -79 -18t-29 -43q-15 -62 -15 -215v-619q0 -96 26 -168.5t73 -115t106.5 -63.5t132.5 -21q167 0 263 96t96 272q0 174 -2 291l-9 363q-2 80 -17.5 124.5t-43 65t-82.5 37.5l-80 29v12h522v-12l-63 -27q-81 -31 -110 -73t-33 -156 l-29 -666q-9 -231 -149 -349t-361 -118q-123 0 -223.5 28t-178 85.5t-120.5 154.5t-43 226v604q0 153 -15 215q-8 31 -25.5 42.5t-72.5 18.5z" />
<glyph unicode="V" horiz-adv-x="1370" d="M-59 1350v18h723v-18l-70 -9q-53 -8 -72.5 -23.5t-19.5 -41.5q0 -33 20 -92l305 -832h4l168 496q44 125 77.5 243.5t33.5 157.5q0 26 -20 41.5t-84 38.5l-82 27v12h520v-12l-64 -25q-58 -23 -89 -49.5t-60.5 -79.5t-77.5 -172l-428 -1063h-74l-436 1088 q-28 69 -42.5 103.5t-33.5 71.5t-31 51.5t-32 30t-39.5 21t-50.5 10.5z" />
<glyph unicode="W" horiz-adv-x="2043" d="M-45 1350v18h711v-18l-66 -9q-54 -9 -76 -24.5t-22 -40.5q0 -32 22 -94l267 -781h4l225 582l-37 117q-49 151 -76 189.5t-104 51.5l-49 9v18h702v-18l-72 -9q-59 -9 -81.5 -23t-22.5 -38q0 -37 27 -129l229 -750h4l176 549q33 92 58.5 181t25.5 116q0 26 -19 42t-83 38 l-82 29v12h520v-12l-63 -27q-61 -23 -92.5 -48.5t-61.5 -78.5t-78 -170l-426 -1065h-74l-294 934l-367 -934h-74l-383 1086q-30 81 -47.5 122.5t-36 77t-38 50.5t-42 24.5t-59.5 15.5z" />
<glyph unicode="X" horiz-adv-x="1497" d="M14 0v12l47 17q99 38 158.5 80t138.5 143l275 362l-342 531q-70 107 -95 134q-46 49 -116 60l-60 11v18h744v-18l-62 -9q-59 -11 -80.5 -22t-21.5 -31q0 -29 62 -131l184 -309l65 94q183 266 183 324q0 19 -16 29.5t-68 33.5l-72 27v12h518v-12l-49 -17 q-99 -39 -158.5 -81t-136.5 -142l-238 -315l373 -578q68 -107 94 -135q46 -48 117 -59l60 -11v-18h-746v18l62 9q59 11 81.5 22t22.5 31q0 31 -64 131l-215 362l-102 -147q-180 -268 -180 -324q0 -19 15.5 -30t68.5 -33l69 -27v-12h-516z" />
<glyph unicode="Y" horiz-adv-x="1345" d="M-51 1350v18h751v-18l-59 -9q-62 -9 -83 -19.5t-21 -31.5q0 -22 45 -114l239 -500h4l158 334q39 76 66.5 149t27.5 101q0 20 -22 33.5t-90 35.5l-72 27v12h518v-12l-63 -25q-79 -30 -119.5 -70.5t-110.5 -162.5l-270 -471v-324q0 -157 14 -215q8 -31 26 -42.5t73 -18.5 l67 -9v-18h-684v18l66 9q56 7 73 18.5t25 42.5q14 58 14 215v113q0 77 -9.5 124.5t-41.5 108.5l-268 512q-59 110 -89 138t-104 40z" />
<glyph unicode="Z" horiz-adv-x="1339" d="M66 10l823 1311l-2 4l-264 -4q-116 -3 -170.5 -22.5t-100.5 -65.5q-46 -45 -95.5 -116.5t-123.5 -190.5l-14 4l76 508h12l12 -37q9 -28 19.5 -34.5t44.5 -6.5h977l6 -10l-820 -1311l3 -4l225 4q173 4 248 26t133 80q92 92 225 283l16 -4l-88 -424h-1138z" />
<glyph unicode="[" horiz-adv-x="827" d="M221 -416q6 150 6 377v1231q0 227 -6 377q437 -13 633 -2l4 -17q-74 -11 -352 -28q-6 -320 -6 -947q0 -625 6 -944q278 -17 352 -28l-4 -17q-196 11 -633 -2z" />
<glyph unicode="\" horiz-adv-x="825" d="M45 1630l45 17l774 -2122l-45 -17z" />
<glyph unicode="]" horiz-adv-x="827" d="M-31 -397q74 11 353 28q6 319 6 944q0 627 -6 947q-279 17 -353 28l4 17q196 -11 633 2q-6 -150 -6 -377v-1231q0 -227 6 -377q-437 13 -633 2z" />
<glyph unicode="^" horiz-adv-x="1011" d="M102 584l387 751h33l387 -751l-41 -19l-362 709l-363 -709z" />
<glyph unicode="_" horiz-adv-x="858" d="M0 -205h858v-49h-858v49z" />
<glyph unicode="`" horiz-adv-x="1024" d="M279 1454q0 51 41.5 92t101.5 41q24 0 45 -9t33 -18.5t28.5 -35t22 -36.5t22.5 -46l74 -152q78 -148 109 -203l-8 -6q-118 79 -211 138l-152 92q-57 35 -81.5 68.5t-24.5 74.5z" />
<glyph unicode="a" horiz-adv-x="954" d="M55 180q0 69 45 117q31 31 91 60t184 71l157 53v142q0 140 -43 180q-32 37 -110 37q-56 0 -94 -23l55 -174q-22 -16 -82 -33.5t-102 -17.5q-93 0 -93 63q0 43 74 117q79 79 197.5 145t214.5 66q137 0 203 -63q63 -66 63 -228v-467q0 -73 33 -106q23 -23 57 -23 q31 0 68 25l6 -8q-34 -52 -101 -98t-145 -46q-70 0 -123 37.5t-73 106.5l-7 2l-32 -27q-69 -59 -121.5 -85t-118.5 -26q-90 0 -146.5 61.5t-56.5 141.5zM338 262q0 -68 33.5 -107.5t81.5 -39.5q40 0 79 22v320q-45 -20 -65 -29.5t-45 -24.5t-43 -32q-41 -41 -41 -109z" />
<glyph unicode="b" horiz-adv-x="1099" d="M33 1313v6l373 127l6 -4q-6 -86 -6 -154v-446l8 -4q61 65 135.5 100t142.5 35q162 0 262.5 -125.5t100.5 -331.5q0 -109 -37 -207.5t-104.5 -173.5t-169 -119.5t-222.5 -44.5q-75 0 -158 20.5t-147 57.5q-32 -10 -108 -59l-9 4q15 96 15 186v989q0 49 -23 78zM401 229v-6 q-1 -115 39 -165q40 -52 107 -52q83 0 145 117.5t62 310.5q0 185 -73 292.5t-177 107.5q-48 0 -98 -25z" />
<glyph unicode="c" horiz-adv-x="915" d="M45 449q0 139 62.5 257.5t184 192.5t277.5 74q144 0 231 -51.5t87 -135.5q0 -57 -42 -96t-91 -39q-21 0 -36.5 11.5t-39.5 46.5l-115 188q-17 23 -26.5 30t-24.5 7q-68 0 -132.5 -101.5t-64.5 -271.5q0 -195 97.5 -309.5t242.5 -114.5q121 0 219 88l7 -10 q-64 -119 -164.5 -183.5t-227.5 -64.5q-102 0 -186.5 39t-140.5 106t-86.5 154t-30.5 183z" />
<glyph unicode="d" horiz-adv-x="1112" d="M41 432q0 108 35.5 206t98 171t154.5 116.5t199 43.5q90 0 164 -29v229q0 49 -24 76l-60 68v6l375 127l6 -4q-6 -82 -6 -154v-1179q0 -37 10.5 -47.5t48.5 -10.5l48 2l2 -18l-410 -76l-4 6q4 27 8 80l4 55l-8 4q-63 -66 -136.5 -101.5t-142.5 -35.5q-161 0 -261.5 128.5 t-100.5 336.5zM342 504q0 -184 73 -289.5t177 -105.5q54 0 100 24l4 569q0 120 -40.5 172t-104.5 52q-86 0 -147.5 -115t-61.5 -307z" />
<glyph unicode="e" horiz-adv-x="948" d="M45 444q0 148 62.5 269t173 190.5t245.5 69.5q174 0 277.5 -87.5t103.5 -215.5q0 -36 -8 -60l-582 2v-37q0 -200 88.5 -304.5t239.5 -104.5q162 0 266 113l9 -7q-61 -143 -173 -224t-258 -81q-135 0 -237.5 66t-154.5 173.5t-52 237.5zM319 639q290 5 334 23v16 q1 62 -13 116q-16 62 -50 102t-80 40q-53 0 -96 -43q-79 -79 -95 -254z" />
<glyph unicode="f" horiz-adv-x="696" d="M6 801v10l146 125l6 51q24 215 157.5 337t331.5 122q120 0 190 -48.5t70 -117.5q0 -59 -45 -101t-100 -42q-20 0 -35.5 11.5t-34.5 43.5l-96 178q-18 33 -35 33q-55 0 -91 -101q-32 -91 -32 -260v-38l2 -64h289l-37 -139h-248v-733q0 -25 9.5 -33t48.5 -12l63 -7v-16 h-502v16l33 7q37 6 46.5 14t9.5 33v731h-146z" />
<glyph unicode="g" horiz-adv-x="1007" d="M25 -260q0 63 49.5 119t152.5 96q-62 16 -104 55q-60 63 -60 146q0 58 51 107.5t138 98.5q-84 42 -130 115.5t-46 161.5q0 145 108 237.5t287 92.5q62 0 157 -17.5t140 -17.5q83 0 229 47q33 -39 33 -92q0 -41 -23.5 -64.5t-62.5 -23.5q-54 0 -156 61l-40 25l-7 -8 q117 -103 117 -234q0 -147 -106.5 -239.5t-284.5 -92.5q-109 0 -195 39q-47 -41 -47 -90q0 -29 23.5 -45t85.5 -16q31 0 122.5 1t153.5 1q126 0 203 -17t119 -61q63 -60 63 -160q0 -75 -32.5 -133.5t-90.5 -116.5q-91 -91 -215 -142.5t-272 -51.5q-168 0 -264 61.5 t-96 157.5zM223 -143q0 -97 89.5 -156t236.5 -59q161 0 234 48.5t73 123.5q0 57 -31 88q-28 28 -88.5 38.5t-199.5 10.5q-44 0 -127.5 -1t-122.5 -1q-21 0 -31 2q-33 -46 -33 -94zM336 664q0 -142 41 -230t110 -88q62 0 88.5 65t26.5 189q0 151 -33 245.5t-102 94.5 q-57 0 -94 -80t-37 -196z" />
<glyph unicode="h" horiz-adv-x="1097" d="M41 0v16l39 7q30 6 39.5 14.5t9.5 28.5v1103q0 47 -23 76l-59 68v6l375 127l4 -4q-6 -86 -6 -154v-497l8 -5q98 98 178.5 142.5t161.5 44.5q91 0 152 -58q32 -34 46.5 -77t14.5 -129v-643q0 -22 9 -29.5t40 -13.5l39 -7v-16h-457v16l39 7q24 4 32.5 13t8.5 30v520 q0 138 -37 178q-36 33 -102 33q-61 0 -133 -37v-694q0 -21 8 -30t33 -13l39 -7v-16h-459z" />
<glyph unicode="i" horiz-adv-x="536" d="M41 0v16l33 7q36 6 45.5 14t9.5 33v643q0 46 -23 75l-59 66v6l375 127l4 -6q-6 -82 -6 -152v-759q0 -25 9.5 -33t47.5 -14l31 -7v-16h-467zM115 1255q0 62 51.5 111t124.5 49q66 0 110.5 -45.5t44.5 -109.5q0 -65 -47.5 -110.5t-119.5 -45.5q-68 0 -116 43.5t-48 107.5z " />
<glyph unicode="j" horiz-adv-x="540" d="M-193 -334q0 55 38.5 93t91.5 38q32 0 53 -37l94 -180q11 -16 16 -16q7 0 13 6q24 24 24 199v942q0 50 -22 75l-60 68v6l375 127l4 -6q-6 -82 -6 -152v-720q0 -135 -18 -213q-18 -71 -59.5 -142.5t-90.5 -120.5q-107 -112 -268 -112q-83 0 -134 39t-51 106zM121 1255 q0 62 51.5 111t124.5 49q67 0 112.5 -45.5t45.5 -109.5t-49.5 -110t-120.5 -46q-67 0 -115.5 43.5t-48.5 107.5z" />
<glyph unicode="k" horiz-adv-x="1081" d="M41 0v16l33 7q36 6 45.5 14t9.5 33v1099q0 47 -23 76l-59 68v6l375 127l4 -4q-6 -86 -6 -154v-823l209 225q55 56 91 102.5t36 61.5q0 22 -90 47l-82 25v14h501v-14l-69 -23q-67 -20 -100.5 -39t-106.5 -78l-137 -118l315 -549q49 -83 115 -96l33 -7v-16h-523v16l35 7 q25 4 33 11t4 21t-22 45l-158 279q-27 47 -43 59.5t-37 12.5h-4v-383q0 -24 8.5 -32.5t38.5 -12.5l33 -7v-16h-459z" />
<glyph unicode="l" horiz-adv-x="542" d="M41 0v16l33 7q36 6 45.5 14t9.5 33v1099q0 47 -23 76l-59 68v6l375 127l4 -4q-6 -86 -6 -154v-1220q0 -24 9.5 -31.5t47.5 -13.5l31 -7v-16h-467z" />
<glyph unicode="m" horiz-adv-x="1628" d="M41 0v16l33 7q36 6 45.5 14t9.5 33v641q0 49 -23 75l-59 68v6l381 129l4 -6q-8 -110 -8 -131l-2 -59l8 -5q96 97 174.5 141t159.5 44q82 0 143 -58q45 -45 56 -137q183 195 348 195q82 0 143 -58q29 -30 43 -76t14 -130v-641q0 -25 9 -32t47 -13l32 -7v-16h-454v16l33 7 q28 4 35.5 12.5t7.5 32.5v518q0 54 -1 79.5t-9 54.5t-25 46q-31 31 -88 31q-53 0 -133 -41q2 -23 2 -76v-612q0 -25 7 -33t36 -12l32 -7v-16h-444v16l33 7q30 4 37.5 12.5t7.5 32.5v518q0 76 -6.5 116t-30.5 64q-31 31 -88 31q-59 0 -131 -37v-692q0 -24 7.5 -32.5 t37.5 -12.5l33 -7v-16h-457z" />
<glyph unicode="n" horiz-adv-x="1097" d="M41 0v16l33 7q36 6 45.5 14t9.5 33v641q0 49 -23 75l-59 68v6l381 129l4 -6q-8 -110 -8 -131l-2 -59l8 -5q95 97 175.5 141t162.5 44q91 0 152 -58q32 -34 46.5 -77t14.5 -129v-641q0 -25 9 -32t48 -13l31 -7v-16h-457v16l31 7q32 4 40.5 12.5t8.5 32.5v518 q0 138 -37 178q-36 33 -102 33q-61 0 -133 -37v-692q0 -24 8.5 -32.5t38.5 -12.5l33 -7v-16h-459z" />
<glyph unicode="o" horiz-adv-x="1089" d="M45 463q0 110 39 204.5t106 161.5q144 144 365 144q113 0 207 -41.5t154.5 -111t94 -158t33.5 -183.5q0 -112 -39 -206.5t-106 -161.5q-144 -144 -364 -144q-113 0 -207 41.5t-155 111t-94.5 158.5t-33.5 185zM350 494q0 -126 24 -236t72 -182t111 -72q77 0 127 98 q53 106 53 347q0 125 -23.5 235t-71.5 181t-110 71q-78 0 -126 -98q-56 -112 -56 -344z" />
<glyph unicode="p" horiz-adv-x="1107" d="M35 -442l33 6q36 6 45.5 14t9.5 33v1100q0 51 -23 77l-59 68v4l381 129l6 -6q-6 -47 -12 -119v-22l8 -4q61 66 134.5 100.5t141.5 34.5q162 0 262.5 -127.5t100.5 -337.5q0 -108 -35.5 -206t-97.5 -171t-154 -116.5t-198 -43.5q-82 0 -164 29v-389q0 -25 10 -33t49 -14 l62 -6v-17h-500v17zM410 240v-6q0 -115 39 -166q40 -52 104 -52q86 0 147.5 114.5t61.5 307.5q0 183 -73 289.5t-177 106.5q-40 0 -98 -25z" />
<glyph unicode="q" horiz-adv-x="1101" d="M41 430q0 109 37 207t104 173t169 119t224 44q169 0 306 -90q47 35 100 88l10 -4q-10 -95 -10 -211v-1145q0 -25 9.5 -33t47.5 -14l31 -6v-17h-500v17l62 6q41 6 51 14t10 33v491l-8 4q-63 -65 -138 -100t-143 -35q-162 0 -262 126.5t-100 332.5zM342 510q0 -185 73 -291 t177 -106q49 0 100 22l4 580q0 120 -40.5 171.5t-104.5 51.5q-84 0 -146.5 -116.5t-62.5 -311.5z" />
<glyph unicode="r" horiz-adv-x="798" d="M41 0v16l33 7q36 6 45.5 14t9.5 33v641q0 52 -23 75l-59 68v6l381 129l4 -6q-2 -32 -8 -127l-8 -147l10 -4q47 129 116.5 202.5t143.5 73.5q58 0 89.5 -36t31.5 -91q0 -109 -84 -190q-128 69 -199 69q-35 0 -58 -19t-46 -57v-589q0 -25 9.5 -33t47.5 -12l68 -7v-16h-504z " />
<glyph unicode="s" horiz-adv-x="813" d="M51 328l15 4q114 -171 195 -246.5t161 -75.5q57 0 90 33t33 90q0 61 -44.5 108t-146.5 109q-59 37 -90.5 58t-72 54.5t-60.5 63t-34.5 70.5t-14.5 88q0 123 100.5 204t257.5 81q149 0 267 -51q4 -28 9 -115t5 -127l-14 -4q-101 152 -163 205t-120 53q-57 0 -88 -32 t-31 -81q0 -58 39 -100t123 -92q160 -94 230.5 -168t70.5 -181q0 -139 -109 -222t-278 -83t-299 54q-28 167 -31 303z" />
<glyph unicode="t" horiz-adv-x="741" d="M23 801v30q215 167 405 353l8 -4l-8 -240h307l-24 -141l-287 2v-494q0 -86 41 -127q34 -37 121 -37t164 56l6 -6q-51 -101 -138 -162.5t-206 -61.5q-139 0 -207 68q-70 70 -70 213v551h-112z" />
<glyph unicode="u" horiz-adv-x="1095" d="M8 918v12l402 37l4 -6q-6 -81 -6 -173v-432q0 -72 7 -114t29 -64q33 -33 99 -33q55 0 131 39v627q0 44 -6 56.5t-31 23.5l-72 29v10l400 37l4 -6q-6 -81 -6 -177v-667q0 -37 10.5 -48t48.5 -10h49l2 -16l-407 -76l-4 4q1 8 6 76l4 103l-8 4q-95 -95 -175.5 -139 t-160.5 -44q-95 0 -148 56q-34 32 -48.5 75t-14.5 131v578q0 44 -6 56.5t-31 21.5z" />
<glyph unicode="v" horiz-adv-x="948" d="M-51 922v18h555v-18l-66 -9q-28 -5 -38.5 -11.5t-10.5 -20.5q0 -21 14 -56l191 -524h8l107 299q25 68 45 143t20 99q0 37 -76 67l-45 21v10h353v-10l-50 -27q-44 -23 -68 -48t-48 -83l-332 -797h-66l-358 846q-21 51 -37.5 67.5t-50.5 24.5z" />
<glyph unicode="w" horiz-adv-x="1495" d="M-27 922v18h529v-18l-58 -9q-22 -5 -30 -10.5t-8 -17.5q0 -18 10 -54l162 -509h6l153 389l-43 120q-18 44 -31.5 58.5t-46.5 23.5l-43 9v18h525v-18l-58 -9q-19 -5 -27.5 -7.5t-14 -7.5t-5.5 -13q0 -7 13 -54l151 -509h8l86 251q72 224 72 273q0 35 -74 61l-45 23v10h352 v-10l-59 -33q-40 -21 -63.5 -46.5t-47.5 -84.5l-321 -791h-66l-239 672l-271 -672h-67l-318 856q-17 43 -32.5 58t-51.5 24z" />
<glyph unicode="x" horiz-adv-x="1009" d="M-10 0v10l61 31q54 26 80.5 45.5t54.5 56.5l211 260l-243 418q-28 48 -50.5 65t-60.5 25l-53 11v18h553v-18l-74 -13q-25 -3 -28 -14t22 -57l131 -228l72 115q71 112 71 135q0 11 -10.5 21t-40.5 24l-45 25v10h352v-10l-63 -31q-55 -27 -82 -46t-55 -54l-179 -224 l265 -456q28 -48 48.5 -65t55.5 -25l59 -11v-18h-559v18l80 13q24 3 27 14t-21 59l-155 267l-97 -154q-71 -118 -71 -137q0 -11 10 -21t39 -24l47 -25v-10h-352z" />
<glyph unicode="y" horiz-adv-x="950" d="M-43 922v18h555v-18l-68 -11q-27 -5 -37 -10.5t-10 -19.5q0 -15 13 -52l184 -557h6l111 314q22 63 44.5 149.5t22.5 110.5q0 31 -76 61l-45 23v10h353v-10l-58 -31q-40 -21 -62 -45.5t-46 -85.5l-338 -831q-45 -109 -86 -187t-73 -121.5t-64.5 -68.5t-55.5 -32t-51 -7 q-64 0 -100.5 44.5t-36.5 106.5q0 54 26 89.5t64 35.5q18 0 41 -10l117 -41q20 -10 43 -10t49 42t67 136l-354 907q-19 50 -36.5 67t-51.5 25z" />
<glyph unicode="z" horiz-adv-x="946" d="M18 12l566 893l-2 4l-127 -10q-92 -6 -133 -18.5t-68 -40.5q-51 -51 -176 -228l-15 4l72 396h15l8 -35q3 -25 9 -31t28 -6h716l4 -12l-540 -891l4 -6l92 6q115 13 179 35t102 59q18 18 35.5 44t50.5 80t59 93l12 -4l-43 -344h-841z" />
<glyph unicode="{" horiz-adv-x="903" d="M51 567v17l47 4q283 21 283 203q0 83 -51 245.5t-51 229.5q0 73 32.5 128.5t89 92.5t143 61t184.5 35.5t222 15.5l2 -18q-67 -8 -108 -14.5t-87 -17.5t-71.5 -26.5t-49 -38.5t-33 -56t-9.5 -76q0 -88 19.5 -233t19.5 -224q0 -56 -19 -101.5t-55.5 -77t-78.5 -54.5 t-101 -39.5t-107.5 -26t-113.5 -18.5v-5q65 -9 113.5 -18.5t107.5 -26t101 -39.5t78.5 -54.5t55.5 -77t19 -101.5q0 -80 -19.5 -224t-19.5 -233q0 -43 9.5 -76t33 -56t49 -38.5t71.5 -26.5t87 -17.5t108 -14.5l-2 -19q-124 4 -222 15.5t-184 36t-143 61t-89.5 92.5 t-32.5 129q0 68 51 232.5t51 242.5q0 182 -283 203z" />
<glyph unicode="|" horiz-adv-x="591" d="M272 -479v2109h47v-2109h-47z" />
<glyph unicode="}" horiz-adv-x="903" d="M-41 -430q67 8 108 14.5t87 17.5t71.5 26.5t49 38.5t33 56t9.5 76q0 89 -19 233.5t-19 223.5q0 56 19 101.5t55.5 77t78.5 54.5t101 39.5t107.5 26t113.5 18.5v5q-65 9 -113.5 18.5t-107.5 26t-101 39.5t-78.5 54.5t-55.5 77t-19 101.5q0 79 19 224t19 233q0 43 -9.5 76 t-33 56t-49 38.5t-71.5 26.5t-87 17.5t-108 14.5l2 18q124 -4 222 -15.5t184.5 -35.5t143.5 -61t89.5 -92.5t32.5 -128.5q0 -67 -51.5 -229.5t-51.5 -245.5q0 -182 283 -203l47 -4v-17l-47 -4q-283 -21 -283 -203q0 -78 51.5 -242.5t51.5 -232.5q0 -73 -32.5 -129 t-89.5 -92.5t-143.5 -61t-184.5 -36t-222 -15.5z" />
<glyph unicode="~" horiz-adv-x="1339" d="M100 281q110 432 314 432q47 0 96 -29t88.5 -72t83 -93.5t81 -93.5t81 -72t84.5 -29q86 0 153.5 107.5t112.5 291.5l45 -16q-113 -433 -313 -433q-47 0 -96.5 29t-89 72t-83 94t-81 94t-81 72t-83.5 29q-85 0 -153.5 -107.5t-115.5 -292.5z" />
<glyph unicode="&#xa1;" horiz-adv-x="577" d="M115 141q0 91 69 361q55 185 76 305l21 137h18l18 -137q22 -123 76 -305q72 -269 72 -361q0 -81 -49.5 -127.5t-126.5 -46.5t-125.5 46.5t-48.5 127.5zM117 1223q0 67 49.5 116.5t122.5 49.5q72 0 122 -47t50 -115q0 -65 -50 -114.5t-126 -49.5q-67 0 -117.5 48.5 t-50.5 111.5z" />
<glyph unicode="&#xa2;" horiz-adv-x="995" d="M82 449q0 135 59.5 250t174.5 189t264 83l12 176h31l-13 -174h11q151 0 242 -56.5t91 -144.5q0 -61 -40 -101t-89 -40q-24 0 -40.5 11t-32.5 46l-84 209q-10 24 -20 30.5t-34 6.5h-8l-55 -770q69 -27 139 -27q149 0 240 88l8 -10q-134 -248 -401 -248l-13 -178l-28 2 l12 176q-99 5 -180 46t-134.5 107t-82.5 151t-29 178zM352 547q0 -133 44.5 -228t125.5 -141l53 752q-92 -19 -157.5 -120t-65.5 -263z" />
<glyph unicode="&#xa3;" horiz-adv-x="1175" d="M51 72q0 38 57 69.5t168 51.5q32 55 32.5 128.5t-23.5 190.5q-11 50 -15 86h-184v33h180q-8 74 -8 110q0 102 32.5 189.5t94.5 153.5t159.5 103.5t219.5 37.5q51 0 100.5 -10.5t93 -32t70.5 -59.5t27 -87q0 -58 -41 -102.5t-88 -44.5q-41 0 -74 59l-98 180 q-22 42 -31.5 53t-22.5 11q-16 0 -32 -6t-37.5 -28.5t-37.5 -59t-26.5 -105t-9.5 -159.5q3 -103 -8 -203h328v-33h-332q-9 -57 -25.5 -105t-33.5 -82t-53.5 -77.5t-61.5 -69t-80 -80.5l6 -8q88 54 154 75t133 21q63 0 173.5 -16t153.5 -16q55 0 81.5 22.5t49.5 104.5l9 20 l14 -2l-12 -78q-25 -159 -70 -241t-125 -82q-69 0 -183.5 43.5t-220.5 87t-153 43.5h-2q-63 -96 -98.5 -137t-65.5 -41q-31 0 -57.5 28t-26.5 64z" />
<glyph unicode="&#xa5;" horiz-adv-x="1316" d="M-14 1174v18h704v-18l-65 -9q-54 -8 -70 -19t-16 -32q0 -18 41 -102l211 -439h4l123 246q102 200 102 268q0 20 -17 32.5t-79 33.5l-80 27v12h497v-12l-69 -25q-34 -12 -46.5 -17t-34 -16.5t-31.5 -22t-28 -33t-34 -50.5t-41 -72l-170 -303h293v-35h-314l-49 -88v-76h363 v-34h-363v-105q0 -155 14 -213q8 -32 25.5 -44t73.5 -19l67 -9v-18h-630v18l65 9q57 7 74.5 19t25.5 44q13 72 13 199v26q0 49 -6 93h-371v34h364q-13 53 -40 103l-33 61h-291v35h272l-188 356q-52 97 -85 124.5t-112 41.5z" />
<glyph unicode="&#xa7;" horiz-adv-x="970" d="M94 598q0 92 47 196t106 180.5t132 149.5q116 116 198.5 162.5t149.5 46.5q61 0 100 -37t39 -98q0 -54 -27.5 -88.5t-62.5 -34.5q-32 0 -100 43l-117 74q-34 20 -39 20q-10 0 -17 -11t-7 -30q0 -30 39.5 -90.5t96 -134.5t112.5 -156.5t95.5 -176t39.5 -171.5 q0 -70 -26 -146t-71 -145t-91 -125.5t-99 -109.5q-209 -209 -346 -209q-62 0 -102 37t-40 98q0 54 29 88.5t64 34.5q28 0 100 -43l115 -74q36 -20 41 -20q9 0 16.5 11t7.5 30q0 30 -39.5 90.5t-96 134.5t-112.5 156.5t-95.5 176t-39.5 171.5zM252 797q0 -80 34 -168.5 t85.5 -168.5t105 -155.5t100 -154.5t62.5 -140h4q78 106 78 234q0 80 -34 168.5t-86 168.5t-105.5 155.5t-100.5 154t-63 139.5h-2q-78 -106 -78 -233z" />
<glyph unicode="&#xa8;" horiz-adv-x="1021" d="M168 1225q0 60 46.5 105.5t113.5 45.5q61 0 101 -42t40 -101q0 -64 -43.5 -108t-108.5 -44q-62 0 -105.5 42.5t-43.5 101.5zM555 1225q0 64 43.5 107.5t110.5 43.5q60 0 103.5 -41.5t43.5 -101.5q0 -61 -46.5 -106.5t-111.5 -45.5q-62 0 -102.5 43t-40.5 101z" />
<glyph unicode="&#xa9;" horiz-adv-x="1593" d="M70 694q0 196 93.5 363.5t259.5 267.5t365 100q141 0 261.5 -41t206.5 -112t147.5 -166.5t91 -205.5t29.5 -228q0 -145 -56 -279t-151 -233t-229.5 -158t-284.5 -59q-141 0 -261 41t-206 112t-146.5 166.5t-90 205t-29.5 226.5zM117 690q0 -213 90.5 -374.5t247.5 -246.5 t356 -85q96 0 191.5 30.5t181 91t151 142.5t104 193t38.5 235q0 161 -52.5 294.5t-145 224.5t-220.5 141t-277 50q-97 0 -193 -30.5t-180.5 -91t-150 -143t-103.5 -194.5t-38 -237zM428 694q0 158 115.5 265.5t298.5 107.5q49 0 120 -12.5t76 -12.5q12 0 19 13l6 10h12 q18 -154 21 -258l-13 -2q-58 126 -110 178q-57 57 -137 57q-91 0 -147 -80.5t-56 -240.5q0 -152 56.5 -253t150.5 -101q75 0 131 59q71 68 135 209l12 -6q-4 -65 -15.5 -142t-17.5 -86q-133 -61 -254 -61q-171 0 -287 96t-116 260z" />
<glyph unicode="&#xaa;" horiz-adv-x="796" d="M82 803q0 56 41 94t156 76l159 53v94q0 101 -30 131q-26 29 -80 29q-36 0 -72 -16l43 -136q-15 -10 -61.5 -23t-77.5 -13q-74 0 -74 49q0 37 60 94.5t152 103t167 45.5q96 0 145 -49t49 -164v-344q0 -88 62 -88q22 0 49 17l6 -8q-23 -36 -73.5 -68.5t-110.5 -32.5 q-53 0 -95.5 27t-56.5 76h-2l-24 -21q-56 -42 -94 -60t-87 -18q-68 0 -109.5 45t-41.5 107zM299 860q0 -52 25.5 -80t62.5 -28q29 0 51 16v238q-75 -32 -107 -61t-32 -85z" />
<glyph unicode="&#xab;" horiz-adv-x="1069" d="M43 487v13l545 387l10 -10l-272 -383l272 -383l-10 -11zM446 487v13l533 387l10 -10l-260 -383l260 -383l-10 -11z" />
<glyph unicode="&#xad;" horiz-adv-x="692" d="M86 410v206h522v-206h-522z" />
<glyph unicode="&#xae;" horiz-adv-x="884" d="M86 1036q0 155 104 260t259 105t259.5 -105t104.5 -260t-104.5 -259.5t-259.5 -104.5t-259 104.5t-104 259.5zM123 1036q0 -145 92.5 -239.5t233.5 -94.5q142 0 234.5 94.5t92.5 239.5t-92.5 239.5t-234.5 94.5q-141 0 -233.5 -94.5t-92.5 -239.5zM260 860v10l19 4 q23 5 26 19q2 12 2 57v205q0 41 -2 53q-2 8 -7.5 12.5t-21.5 8.5l-16 4v10q51 -2 156 -2q114 0 160.5 -28t46.5 -70q0 -62 -82 -90q70 -126 104 -160q13 -13 43 -25v-8q-7 0 -51.5 -2t-52.5 -2q-28 0 -43 12.5t-31 44.5l-59 103q-9 16 -25 16h-12v-82q0 -45 2 -57 q3 -14 28 -19l21 -4v-10h-205zM414 1044q40 0 68 22.5t28 70.5q0 43 -21.5 65.5t-72.5 22.5q-2 -14 -2 -62v-119z" />
<glyph unicode="&#xaf;" horiz-adv-x="1021" d="M180 1114v127h662v-127h-662z" />
<glyph unicode="&#xb0;" horiz-adv-x="755" d="M111 1083q0 112 77.5 188.5t190.5 76.5q111 0 188.5 -76.5t77.5 -188.5q0 -110 -77.5 -186t-188.5 -76q-113 0 -190.5 76t-77.5 186zM164 1083q0 -91 63 -155t152 -64q90 0 152.5 63.5t62.5 155.5t-63.5 157t-151.5 65q-91 0 -153 -64t-62 -158z" />
<glyph unicode="&#xb1;" horiz-adv-x="1015" d="M143 29v45h729v-45h-729zM143 565v45h342v342h45v-342h342v-45h-342v-342h-45v342h-342z" />
<glyph unicode="&#xb4;" horiz-adv-x="1024" d="M266 1087q37 63 111 203l74 152q17 35 22.5 46t22 36.5t28.5 35t33 18.5t45 9q58 0 99.5 -41t41.5 -92q0 -42 -24 -75t-82 -68l-152 -92q-106 -67 -209 -138z" />
<glyph unicode="&#xb6;" horiz-adv-x="1286" d="M45 924q0 192 165 301.5t515 109.5q271 0 520 -20v-19l-51 -2q-63 -6 -86 -19t-31 -44q-12 -49 -12 -207v-1063h-41v1337l-201 2v-927q0 -144 -14 -242t-49 -170q-34 -67 -87 -112.5t-122 -45.5q-64 0 -100.5 41.5t-36.5 108.5q0 56 30.5 115t77.5 88q60 -78 106 -109 t72 -31t39 27q43 86 43 410v57h-39q-333 0 -515.5 108.5t-182.5 305.5z" />
<glyph unicode="&#xb7;" horiz-adv-x="516" d="M82 512q0 66 51.5 118t126.5 52q71 0 122.5 -49.5t51.5 -116.5q0 -70 -50 -120t-124 -50q-75 0 -126.5 48t-51.5 118z" />
<glyph unicode="&#xb8;" horiz-adv-x="1024" d="M260 -537l4 21q74 -19 129 -19q92 0 141.5 36t49.5 96q0 57 -55 90.5t-203 44.5v6l200 242h39l-84 -101q87 -12 147 -37t87.5 -57t38 -59.5t10.5 -57.5q0 -106 -92 -170.5t-242 -64.5q-96 0 -170 30z" />
<glyph unicode="&#xba;" horiz-adv-x="894" d="M72 1012q0 164 106 262q104 110 277 110q112 0 197.5 -52.5t128 -133.5t42.5 -174q0 -162 -102 -264q-114 -111 -281 -111q-112 0 -197.5 53t-128 134.5t-42.5 175.5zM309 1034q0 -139 40.5 -244.5t107.5 -105.5q58 0 88 64q41 78 41 251q0 90 -16.5 169t-51 131.5 t-80.5 52.5q-57 0 -88 -64q-41 -84 -41 -254z" />
<glyph unicode="&#xbb;" horiz-adv-x="1069" d="M80 111l260 383l-260 383l10 10l533 -387v-13l-533 -387zM471 111l272 383l-272 383l10 10l545 -387v-13l-545 -387z" />
<glyph unicode="&#xbf;" horiz-adv-x="808" d="M68 440q0 124 52.5 188.5t176.5 98.5l203 55q29 8 36.5 21.5t8.5 66.5l2 74h20l25 -153q29 -170 29 -193q0 -40 -19 -59.5t-76 -38.5l-194 -60q-72 -23 -102.5 -55.5t-30.5 -85.5q0 -75 43.5 -155.5t79.5 -80.5q11 0 50 33l5.5 5.5t5.5 4.5l158 138q53 43 90 43 q43 0 76.5 -41t33.5 -107q0 -67 -54.5 -119.5t-147.5 -52.5q-128 0 -237 65.5t-171.5 174t-62.5 233.5zM367 1223q0 67 49 116.5t121 49.5t123 -47.5t51 -114.5q0 -65 -50 -114.5t-126 -49.5q-68 0 -118 48t-50 112z" />
<glyph unicode="&#xc0;" d="M-72 0v12l68 27q85 31 123.5 76.5t91.5 179.5l348 872q-24 56 -41 84l2 4q77 29 152.5 76t126.5 101h6l401 -1227q35 -105 63.5 -136t96.5 -42l66 -9v-18h-699v18l70 9q53 6 74.5 20t21.5 39q0 23 -14 70l-109 344h-405l-25 -74q-84 -244 -84 -305q0 -26 20.5 -43 t84.5 -39l79 -27v-12h-518zM293 1790q0 56 38.5 99.5t96.5 43.5q20 0 39 -8t31 -15t32 -28.5t26 -29t28 -35.5l104 -134q74 -95 150 -174l-9 -8q-152 60 -235 90l-164 58q-137 50 -137 141zM387 549h373l-158 495q-14 46 -24 72z" />
<glyph unicode="&#xc1;" d="M-72 0v12l68 27q85 31 123.5 76.5t91.5 179.5l348 872q-24 56 -41 84l2 4q77 29 152.5 76t126.5 101h6l401 -1227q35 -105 63.5 -136t96.5 -42l66 -9v-18h-699v18l70 9q53 6 74.5 20t21.5 39q0 23 -14 70l-109 344h-405l-25 -74q-84 -244 -84 -305q0 -26 20.5 -43 t84.5 -39l79 -27v-12h-518zM387 549h373l-158 495q-14 46 -24 72zM604 1509q76 79 150 174l104 134q54 69 81 89q37 27 75 27q58 0 96.5 -43.5t38.5 -99.5q0 -91 -137 -141l-164 -58q-97 -35 -236 -90z" />
<glyph unicode="&#xc2;" d="M-72 0v12l68 27q85 31 123.5 76.5t91.5 179.5l348 872q-24 56 -41 84l2 4q77 29 152.5 76t126.5 101h6l401 -1227q35 -105 63.5 -136t96.5 -42l66 -9v-18h-699v18l70 9q53 6 74.5 20t21.5 39q0 23 -14 70l-109 344h-405l-25 -74q-84 -244 -84 -305q0 -26 20.5 -43 t84.5 -39l79 -27v-12h-518zM354 1507l355 426h12l354 -426l-6 -6l-358 156l-351 -156zM387 549h373l-158 495q-14 46 -24 72z" />
<glyph unicode="&#xc3;" d="M-72 0v12l68 27q85 31 123.5 76.5t91.5 179.5l348 872q-24 56 -41 84l2 4q77 29 152.5 76t126.5 101h6l401 -1227q35 -105 63.5 -136t96.5 -42l66 -9v-18h-699v18l70 9q53 6 74.5 20t21.5 39q0 23 -14 70l-109 344h-405l-25 -74q-84 -244 -84 -305q0 -26 20.5 -43 t84.5 -39l79 -27v-12h-518zM338 1503q38 194 90.5 278.5t130.5 84.5q26 0 62 -11t58 -20.5t85 -38.5q55 -24 77.5 -33.5t52 -18.5t48.5 -9q67 0 137 149l13 -4q-37 -194 -90.5 -277t-131.5 -83q-8 0 -17 1t-16.5 2t-18 4l-17.5 5t-20 7t-20 7.5t-22 9t-22 9.5t-25.5 11 t-25.5 11q-122 54 -157 60q-12 2 -22 2q-33 0 -65.5 -35.5t-71.5 -112.5zM387 549h373l-158 495q-14 46 -24 72z" />
<glyph unicode="&#xc4;" d="M-72 0v12l68 27q85 31 123.5 76.5t91.5 179.5l348 872q-24 56 -41 84l2 4q77 29 152.5 76t126.5 101h6l401 -1227q35 -105 63.5 -136t96.5 -42l66 -9v-18h-699v18l70 9q53 6 74.5 20t21.5 39q0 23 -14 70l-109 344h-405l-25 -74q-84 -244 -84 -305q0 -26 20.5 -43 t84.5 -39l79 -27v-12h-518zM360 1642q0 62 46 108t114 46q59 0 100.5 -43t41.5 -102q0 -62 -44 -106t-108 -44t-107 41.5t-43 99.5zM387 549h373l-158 495q-14 46 -24 72zM770 1645q0 64 43.5 107.5t110.5 43.5q62 0 105.5 -41.5t43.5 -101.5q0 -61 -46.5 -106.5 t-111.5 -45.5q-63 0 -104 43t-41 101z" />
<glyph unicode="&#xc5;" d="M-72 0v12l68 27q85 31 123.5 76.5t91.5 179.5l373 936q-78 61 -78 160q0 83 60 142.5t145 59.5q86 0 145 -59t59 -143q0 -81 -53 -140l344 -1046q35 -105 63.5 -136t96.5 -42l66 -9v-18h-699v18l70 9q53 6 74.5 20t21.5 39q0 23 -14 70l-109 344h-405l-25 -74 q-84 -244 -84 -305q0 -26 20.5 -43t84.5 -39l79 -27v-12h-518zM387 549h373l-115 360q-9 33 -35 113.5t-32 93.5zM555 1391q0 -67 45.5 -113.5t110.5 -46.5t110 46.5t45 113.5q0 66 -45 111.5t-110 45.5t-110.5 -45.5t-45.5 -111.5z" />
<glyph unicode="&#xc6;" horiz-adv-x="1947" d="M-86 0v12l68 27q78 32 120.5 76t128.5 182l629 997q-7 22 -26.5 31.5t-67.5 15.5l-66 9v18h1125l-13 -399l-14 -4q-52 116 -82 170.5t-61 85.5q-82 82 -293 100l-158 10v-616l123 6q80 4 121.5 17.5t71.5 43.5q42 42 75 123l27 66l14 -4l-12 -537l-14 -2l-27 66 q-36 96 -70 127q-26 26 -65.5 38.5t-116.5 16.5l-127 6v-391q0 -151 13 -205q7 -30 24.5 -40.5t56.5 -10.5q78 0 172.5 17t143.5 42q55 27 90 64q45 45 182 254l15 -9l-80 -403h-1121v18l66 9q55 7 72.5 18.5t25.5 42.5q15 62 15 215v197h-428l-43 -76q-154 -271 -154 -315 q0 -19 20.5 -32.5t81.5 -37.5l74 -27v-12h-516zM479 549h400v514q0 113 -9 174z" />
<glyph unicode="&#xc7;" horiz-adv-x="1449" d="M66 670q0 151 54 284.5t152 232.5t243.5 156.5t318.5 57.5q100 0 240 -25.5t145 -25.5q20 0 34 26l13 23h14q32 -266 39 -506l-16 -2q-67 138 -120.5 225.5t-111.5 143.5q-55 56 -113.5 81t-134.5 25q-81 0 -152 -38.5t-128 -115t-90 -204t-33 -291.5q0 -199 52 -361 t147 -256t215 -94q130 0 253 123q121 119 261 414l14 -8q-6 -107 -27 -264.5t-32 -178.5q-247 -118 -478 -121l-77 -92q70 -10 123 -29t82.5 -40.5t47.5 -48.5t23.5 -48.5t5.5 -44.5q0 -106 -92 -170.5t-242 -64.5q-96 0 -170 30l4 21q74 -19 129 -19q92 0 141.5 36t49.5 96 q0 57 -55 90.5t-203 44.5v6l194 233q-121 4 -229.5 35.5t-198 91t-155 142t-101.5 192.5t-36 238z" />
<glyph unicode="&#xc8;" horiz-adv-x="1290" d="M41 0v18l65 9q57 7 75 18.5t26 42.5q12 50 12 215v760q0 167 -12 217q-8 31 -26 42.5t-75 18.5l-65 9v18h1124l-8 -399l-14 -4q-57 120 -87.5 174t-60.5 84q-80 80 -293 98l-155 10v-616l112 6q79 4 121.5 18t71.5 43q43 43 76 123l26 66l15 -4l-13 -537l-14 -2l-27 66 q-40 98 -69 127q-26 26 -65.5 38.5t-116.5 16.5l-117 6v-391q0 -164 10 -205q7 -30 25 -40.5t59 -10.5q78 0 171 17t142 42q56 27 93 64q54 58 180 254l14 -9l-80 -403h-1120zM276 1790q0 56 39 99.5t97 43.5q30 0 59 -17.5t44 -34.5t44 -54q5 -7 8 -10l105 -134 q78 -100 149 -174l-8 -8q-152 60 -235 90l-164 58q-138 50 -138 141z" />
<glyph unicode="&#xc9;" horiz-adv-x="1290" d="M41 0v18l65 9q57 7 75 18.5t26 42.5q12 50 12 215v760q0 167 -12 217q-8 31 -26 42.5t-75 18.5l-65 9v18h1124l-8 -399l-14 -4q-57 120 -87.5 174t-60.5 84q-80 80 -293 98l-155 10v-616l112 6q79 4 121.5 18t71.5 43q43 43 76 123l26 66l15 -4l-13 -537l-14 -2l-27 66 q-40 98 -69 127q-26 26 -65.5 38.5t-116.5 16.5l-117 6v-391q0 -164 10 -205q7 -30 25 -40.5t59 -10.5q78 0 171 17t142 42q56 27 93 64q54 58 180 254l14 -9l-80 -403h-1120zM559 1509q76 79 150 174l104 134q54 69 81 89q37 27 75 27q58 0 96.5 -43.5t38.5 -99.5 q0 -91 -137 -141l-164 -58q-97 -35 -236 -90z" />
<glyph unicode="&#xca;" horiz-adv-x="1290" d="M41 0v18l65 9q57 7 75 18.5t26 42.5q12 50 12 215v760q0 167 -12 217q-8 31 -26 42.5t-75 18.5l-65 9v18h1124l-8 -399l-14 -4q-57 120 -87.5 174t-60.5 84q-80 80 -293 98l-155 10v-616l112 6q79 4 121.5 18t71.5 43q43 43 76 123l26 66l15 -4l-13 -537l-14 -2l-27 66 q-40 98 -69 127q-26 26 -65.5 38.5t-116.5 16.5l-117 6v-391q0 -164 10 -205q7 -30 25 -40.5t59 -10.5q78 0 171 17t142 42q56 27 93 64q54 58 180 254l14 -9l-80 -403h-1120zM322 1507l354 426h12l354 -426l-6 -6l-358 156l-350 -156z" />
<glyph unicode="&#xcb;" horiz-adv-x="1290" d="M41 0v18l65 9q57 7 75 18.5t26 42.5q12 50 12 215v760q0 167 -12 217q-8 31 -26 42.5t-75 18.5l-65 9v18h1124l-8 -399l-14 -4q-57 120 -87.5 174t-60.5 84q-80 80 -293 98l-155 10v-616l112 6q79 4 121.5 18t71.5 43q43 43 76 123l26 66l15 -4l-13 -537l-14 -2l-27 66 q-40 98 -69 127q-26 26 -65.5 38.5t-116.5 16.5l-117 6v-391q0 -164 10 -205q7 -30 25 -40.5t59 -10.5q78 0 171 17t142 42q56 27 93 64q54 58 180 254l14 -9l-80 -403h-1120zM328 1642q0 62 46 108t113 46q59 0 100.5 -43t41.5 -102q0 -62 -44 -106t-108 -44t-106.5 41.5 t-42.5 99.5zM737 1645q0 64 43.5 107.5t110.5 43.5q62 0 105.5 -41.5t43.5 -101.5q0 -61 -46 -106.5t-111 -45.5q-63 0 -104.5 43.5t-41.5 100.5z" />
<glyph unicode="&#xcc;" horiz-adv-x="796" d="M-6 1790q0 56 38.5 99.5t96.5 43.5q20 0 39 -8t31 -15t32 -28.5t26 -29t28 -35.5l104 -134q74 -95 150 -174l-9 -8q-152 60 -235 90l-164 58q-137 50 -137 141zM55 0v18l68 9q55 7 72.5 18.5t25.5 42.5q15 62 15 215v762q0 153 -15 215q-8 31 -25.5 42.5t-72.5 18.5 l-68 9v18h684v-18l-65 -9q-56 -7 -73.5 -18.5t-25.5 -42.5q-14 -58 -14 -215v-762q0 -157 14 -215q8 -31 25.5 -42.5t73.5 -18.5l65 -9v-18h-684z" />
<glyph unicode="&#xcd;" horiz-adv-x="796" d="M55 0v18l68 9q55 7 72.5 18.5t25.5 42.5q15 62 15 215v762q0 153 -15 215q-8 31 -25.5 42.5t-72.5 18.5l-68 9v18h684v-18l-65 -9q-56 -7 -73.5 -18.5t-25.5 -42.5q-14 -58 -14 -215v-762q0 -157 14 -215q8 -31 25.5 -42.5t73.5 -18.5l65 -9v-18h-684zM276 1509 q76 79 150 174l104 134q54 69 81 89q37 27 75 27q58 0 96.5 -43.5t38.5 -99.5q0 -91 -137 -141l-164 -58q-83 -30 -235 -90z" />
<glyph unicode="&#xce;" horiz-adv-x="796" d="M39 1507l354 426h13l354 -426l-6 -6l-359 156l-350 -156zM55 0v18l68 9q55 7 72.5 18.5t25.5 42.5q15 62 15 215v762q0 153 -15 215q-8 31 -25.5 42.5t-72.5 18.5l-68 9v18h684v-18l-65 -9q-56 -7 -73.5 -18.5t-25.5 -42.5q-14 -58 -14 -215v-762q0 -157 14 -215 q8 -31 25.5 -42.5t73.5 -18.5l65 -9v-18h-684z" />
<glyph unicode="&#xcf;" horiz-adv-x="796" d="M43 1642q0 62 46.5 108t113.5 46q59 0 100 -43t41 -102q0 -62 -43.5 -106t-107.5 -44t-107 41.5t-43 99.5zM55 0v18l68 9q55 7 72.5 18.5t25.5 42.5q15 62 15 215v762q0 153 -15 215q-8 31 -25.5 42.5t-72.5 18.5l-68 9v18h684v-18l-65 -9q-56 -7 -73.5 -18.5 t-25.5 -42.5q-14 -58 -14 -215v-762q0 -157 14 -215q8 -31 25.5 -42.5t73.5 -18.5l65 -9v-18h-684zM453 1645q0 64 43 107.5t110 43.5q62 0 106 -41.5t44 -101.5q0 -61 -46.5 -106.5t-111.5 -45.5q-63 0 -104 43t-41 101z" />
<glyph unicode="&#xd0;" horiz-adv-x="1562" d="M41 0v20l68 11q56 6 73.5 16t24.5 41q12 50 12 217v385h-160v39h160v334q0 167 -12 217q-7 31 -24.5 41t-73.5 16l-68 11v20h606q407 0 631.5 -172t224.5 -502q0 -68 -14 -136t-45.5 -138t-78 -133t-116 -118t-154.5 -95t-198 -63t-242 -23q-83 0 -254 6t-360 6zM543 283 q0 -168 10 -209q7 -25 24.5 -36t65.5 -11h19q204 0 327 123q85 85 127.5 216.5t42.5 290.5q0 230 -80 387.5t-225 229.5q-118 59 -307 59q-4 -27 -4 -166v-438h252v-39h-252v-407z" />
<glyph unicode="&#xd1;" horiz-adv-x="1554" d="M4 1352v16h459l815 -919h4l-20 632q-5 125 -31 172.5t-117 75.5l-72 27v12h525v-12l-70 -27q-91 -28 -117.5 -75.5t-31.5 -172.5l-41 -1114h-41l-973 1116l24 -809q3 -120 28.5 -163t117.5 -72l72 -27v-12h-525v12l72 27q91 29 116.5 72t28.5 163l25 859l-70 79 q-57 64 -89 89.5t-81 46.5zM455 1503q38 194 90.5 278.5t130.5 84.5q26 0 62 -11t58 -20.5t85 -38.5q55 -24 77.5 -33.5t52 -18.5t48.5 -9q67 0 137 149l12 -4q-37 -194 -90 -277t-131 -83q-24 0 -57 9.5t-52.5 17t-76.5 32.5q-12 5 -19 8q-120 53 -153 59q-14 3 -25 3 q-33 0 -65.5 -35.5t-71.5 -112.5z" />
<glyph unicode="&#xd2;" horiz-adv-x="1570" d="M66 670q0 116 31.5 224.5t93 200t147.5 160.5t201.5 107.5t246.5 38.5q200 0 362 -84t258.5 -245.5t96.5 -373.5q0 -145 -50.5 -277.5t-141 -233t-227.5 -160.5t-300 -60q-149 0 -280.5 49.5t-228.5 138.5t-153 222.5t-56 292.5zM381 1790q0 56 38.5 99.5t96.5 43.5 q20 0 39 -8t31 -15t32 -28.5t26 -29t28 -35.5l104 -134q74 -95 150 -174l-8 -8q-139 55 -236 90l-164 58q-137 50 -137 141zM420 727q0 -205 49 -370t140 -260t208 -95q103 0 179 81t115.5 225.5t39.5 332.5q0 205 -49.5 370t-140.5 260t-207 95q-104 0 -180 -81.5 t-115 -225t-39 -332.5z" />
<glyph unicode="&#xd3;" horiz-adv-x="1570" d="M66 670q0 116 31.5 224.5t93 200t147.5 160.5t201.5 107.5t246.5 38.5q200 0 362 -84t258.5 -245.5t96.5 -373.5q0 -145 -50.5 -277.5t-141 -233t-227.5 -160.5t-300 -60q-149 0 -280.5 49.5t-228.5 138.5t-153 222.5t-56 292.5zM420 727q0 -205 49 -370t140 -260 t208 -95q103 0 179 81t115.5 225.5t39.5 332.5q0 205 -49.5 370t-140.5 260t-207 95q-104 0 -180 -81.5t-115 -225t-39 -332.5zM664 1509q71 74 149 174l105 134q53 68 78 87q37 29 77 29q58 0 96.5 -43.5t38.5 -99.5q0 -91 -137 -141l-164 -58q-83 -30 -235 -90z" />
<glyph unicode="&#xd4;" horiz-adv-x="1570" d="M66 670q0 116 31.5 224.5t93 200t147.5 160.5t201.5 107.5t246.5 38.5q200 0 362 -84t258.5 -245.5t96.5 -373.5q0 -145 -50.5 -277.5t-141 -233t-227.5 -160.5t-300 -60q-149 0 -280.5 49.5t-228.5 138.5t-153 222.5t-56 292.5zM420 727q0 -205 49 -370t140 -260 t208 -95q103 0 179 81t115.5 225.5t39.5 332.5q0 205 -49.5 370t-140.5 260t-207 95q-104 0 -180 -81.5t-115 -225t-39 -332.5zM426 1507l354 426h13l354 -426l-6 -6l-359 156l-350 -156z" />
<glyph unicode="&#xd5;" horiz-adv-x="1570" d="M66 670q0 116 31.5 224.5t93 200t147.5 160.5t201.5 107.5t246.5 38.5q200 0 362 -84t258.5 -245.5t96.5 -373.5q0 -145 -50.5 -277.5t-141 -233t-227.5 -160.5t-300 -60q-149 0 -280.5 49.5t-228.5 138.5t-153 222.5t-56 292.5zM410 1503q38 194 90.5 278.5t130.5 84.5 q26 0 62 -11t58 -20.5t85 -38.5q55 -24 77.5 -33.5t52 -18.5t48.5 -9q67 0 137 149l12 -4q-37 -194 -90 -277t-131 -83q-24 0 -57 9.5t-52.5 17t-76.5 32.5q-12 5 -19 8q-120 53 -153 59q-14 3 -25 3q-33 0 -65.5 -35.5t-71.5 -112.5zM420 727q0 -205 49 -370t140 -260 t208 -95q103 0 179 81t115.5 225.5t39.5 332.5q0 205 -49.5 370t-140.5 260t-207 95q-104 0 -180 -81.5t-115 -225t-39 -332.5z" />
<glyph unicode="&#xd6;" horiz-adv-x="1570" d="M66 670q0 116 31.5 224.5t93 200t147.5 160.5t201.5 107.5t246.5 38.5q200 0 362 -84t258.5 -245.5t96.5 -373.5q0 -145 -50.5 -277.5t-141 -233t-227.5 -160.5t-300 -60q-149 0 -280.5 49.5t-228.5 138.5t-153 222.5t-56 292.5zM420 727q0 -205 49 -370t140 -260 t208 -95q103 0 179 81t115.5 225.5t39.5 332.5q0 205 -49.5 370t-140.5 260t-207 95q-104 0 -180 -81.5t-115 -225t-39 -332.5zM430 1642q0 62 46 108t114 46q59 0 100 -43t41 -102q0 -62 -43.5 -106t-107.5 -44t-107 41.5t-43 99.5zM840 1645q0 64 43 107.5t110 43.5 q62 0 106 -41.5t44 -101.5q0 -61 -46.5 -106.5t-111.5 -45.5q-63 0 -104 43t-41 101z" />
<glyph unicode="&#xd7;" horiz-adv-x="1093" d="M172 150l344 344l-344 344l31 30l344 -344l342 344l33 -30l-344 -344l344 -344l-33 -31l-342 344l-344 -344z" />
<glyph unicode="&#xd8;" horiz-adv-x="1570" d="M66 670q0 116 31.5 224.5t93 200t147.5 160.5t201.5 107.5t246.5 38.5q257 0 443 -135l131 161l31 -26l-129 -160q115 -93 178 -231t63 -312q0 -145 -50.5 -277.5t-141 -233t-227.5 -160.5t-300 -60q-258 0 -444 135l-133 -161l-31 24l131 162q-115 94 -178 233t-63 310z M420 727q0 -233 63 -410l586 781q-54 127 -135 197.5t-180 70.5q-104 0 -180 -81.5t-115 -225t-39 -332.5zM500 274q54 -129 135 -200.5t182 -71.5q103 0 179 81t115.5 225.5t39.5 332.5q0 230 -64 410z" />
<glyph unicode="&#xd9;" horiz-adv-x="1484" d="M20 1350v18h723v-18l-94 -9q-58 -6 -79 -18t-29 -43q-15 -62 -15 -215v-619q0 -96 26 -168.5t73 -115t106.5 -63.5t132.5 -21q167 0 263 96t96 272q0 174 -2 291l-9 363q-2 80 -17.5 124.5t-43 65t-82.5 37.5l-80 29v12h522v-12l-63 -27q-81 -31 -110 -73t-33 -156 l-29 -666q-9 -231 -149 -349t-361 -118q-123 0 -223.5 28t-178 85.5t-120.5 154.5t-43 226v604q0 153 -15 215q-8 31 -25.5 42.5t-72.5 18.5zM420 1790q0 56 38.5 99.5t96.5 43.5q20 0 39 -8t31 -15t32 -28.5t26 -29t28 -35.5l104 -134q74 -95 150 -174l-9 -8 q-152 60 -235 90l-164 58q-137 50 -137 141z" />
<glyph unicode="&#xda;" horiz-adv-x="1484" d="M20 1350v18h723v-18l-94 -9q-58 -6 -79 -18t-29 -43q-15 -62 -15 -215v-619q0 -96 26 -168.5t73 -115t106.5 -63.5t132.5 -21q167 0 263 96t96 272q0 174 -2 291l-9 363q-2 80 -17.5 124.5t-43 65t-82.5 37.5l-80 29v12h522v-12l-63 -27q-81 -31 -110 -73t-33 -156 l-29 -666q-9 -231 -149 -349t-361 -118q-123 0 -223.5 28t-178 85.5t-120.5 154.5t-43 226v604q0 153 -15 215q-8 31 -25.5 42.5t-72.5 18.5zM702 1509q76 79 150 174l104 134q54 69 81 89q36 27 75 27q58 0 96.5 -43.5t38.5 -99.5q0 -91 -137 -141l-164 -58 q-83 -30 -235 -90z" />
<glyph unicode="&#xdb;" horiz-adv-x="1484" d="M20 1350v18h723v-18l-94 -9q-58 -6 -79 -18t-29 -43q-15 -62 -15 -215v-619q0 -96 26 -168.5t73 -115t106.5 -63.5t132.5 -21q167 0 263 96t96 272q0 174 -2 291l-9 363q-2 80 -17.5 124.5t-43 65t-82.5 37.5l-80 29v12h522v-12l-63 -27q-81 -31 -110 -73t-33 -156 l-29 -666q-9 -231 -149 -349t-361 -118q-123 0 -223.5 28t-178 85.5t-120.5 154.5t-43 226v604q0 153 -15 215q-8 31 -25.5 42.5t-72.5 18.5zM465 1507l354 426h12l355 -426l-6 -6l-359 156l-350 -156z" />
<glyph unicode="&#xdc;" horiz-adv-x="1484" d="M20 1350v18h723v-18l-94 -9q-58 -6 -79 -18t-29 -43q-15 -62 -15 -215v-619q0 -96 26 -168.5t73 -115t106.5 -63.5t132.5 -21q167 0 263 96t96 272q0 174 -2 291l-9 363q-2 80 -17.5 124.5t-43 65t-82.5 37.5l-80 29v12h522v-12l-63 -27q-81 -31 -110 -73t-33 -156 l-29 -666q-9 -231 -149 -349t-361 -118q-123 0 -223.5 28t-178 85.5t-120.5 154.5t-43 226v604q0 153 -15 215q-8 31 -25.5 42.5t-72.5 18.5zM471 1642q0 62 46.5 108t113.5 46q59 0 100 -43t41 -102q0 -62 -43.5 -106t-107.5 -44t-107 41.5t-43 99.5zM881 1645 q0 64 43 107.5t110 43.5q62 0 106 -41.5t44 -101.5q0 -61 -46.5 -106.5t-111.5 -45.5q-63 0 -104 43t-41 101z" />
<glyph unicode="&#xdd;" horiz-adv-x="1345" d="M-51 1350v18h751v-18l-59 -9q-62 -9 -83 -19.5t-21 -31.5q0 -22 45 -114l239 -500h4l158 334q39 76 66.5 149t27.5 101q0 20 -22 33.5t-90 35.5l-72 27v12h518v-12l-63 -25q-79 -30 -119.5 -70.5t-110.5 -162.5l-270 -471v-324q0 -157 14 -215q8 -31 26 -42.5t73 -18.5 l67 -9v-18h-684v18l66 9q56 7 73 18.5t25 42.5q14 58 14 215v113q0 77 -9.5 124.5t-41.5 108.5l-268 512q-59 110 -89 138t-104 40zM643 1509q76 79 150 174l104 134q54 69 81 89q36 27 75 27q58 0 96.5 -43.5t38.5 -99.5q0 -91 -137 -141l-164 -58q-97 -35 -236 -90z" />
<glyph unicode="&#xde;" horiz-adv-x="1273" d="M41 0v18l65 9q57 7 75 18.5t26 42.5q12 50 12 215v762q0 165 -12 215q-8 31 -26 42.5t-75 18.5l-65 9v18h684v-18l-68 -9q-55 -7 -72.5 -18.5t-25.5 -42.5q-9 -42 -12 -178h4q706 0 706 -383q0 -177 -177 -285t-457 -106v14q156 29 229.5 131t73.5 252t-96 246t-283 100 v-6v-762q0 -165 12 -215q8 -31 25.5 -42.5t72.5 -18.5l68 -9v-18h-684z" />
<glyph unicode="&#xdf;" horiz-adv-x="1224" d="M6 803v10l146 125l6 49q24 215 166.5 337t357.5 122q185 0 302.5 -82t117.5 -190q0 -67 -39 -118.5t-135 -111.5q-76 -46 -101.5 -68t-25.5 -42q0 -22 23.5 -47.5t95.5 -84.5q55 -42 84 -65.5t67.5 -57.5t57.5 -59t38.5 -58t27 -67t7.5 -73q0 -141 -115 -247t-278 -106 q-115 0 -189.5 43.5t-74.5 116.5q0 52 41.5 84.5t103.5 32.5q18 0 41 -4t46.5 -19t23.5 -37q0 -2 -10 -65l-15 -62q-8 -41 -8 -51q0 -8 20 -8q73 0 134 54t61 136q0 38 -14 71.5t-49.5 72t-74 71.5t-110.5 89q-92 71 -122.5 108t-30.5 74q0 36 30.5 68.5t120.5 101.5 q70 56 98.5 100.5t28.5 97.5q0 66 -38.5 159t-94.5 151q-58 55 -111 55q-34 0 -63 -23.5t-54.5 -73.5t-40 -142.5t-14.5 -217.5v-882q0 -24 7 -32.5t34 -12.5l41 -9v-16h-463v16l33 7q36 6 46 15t10 34v731h-146z" />
<glyph unicode="&#xe0;" horiz-adv-x="954" d="M55 180q0 69 45 117q31 31 91 60t184 71l157 53v142q0 140 -43 180q-32 37 -110 37q-56 0 -94 -23l55 -174q-22 -16 -82 -33.5t-102 -17.5q-93 0 -93 63q0 43 74 117q79 79 197.5 145t214.5 66q137 0 203 -63q63 -66 63 -228v-467q0 -73 33 -106q23 -23 57 -23 q31 0 68 25l6 -8q-34 -52 -101 -98t-145 -46q-70 0 -123 37.5t-73 106.5l-7 2l-32 -27q-69 -59 -121.5 -85t-118.5 -26q-90 0 -146.5 61.5t-56.5 141.5zM154 1454q0 51 41.5 92t101.5 41q24 0 45 -9t33.5 -19t28.5 -34.5t22.5 -37t22.5 -45.5l73 -152q78 -148 109 -203 l-8 -6q-118 79 -211 138l-152 92q-57 35 -81.5 68.5t-24.5 74.5zM338 262q0 -68 33.5 -107.5t81.5 -39.5q40 0 79 22v320q-45 -20 -65 -29.5t-45 -24.5t-43 -32q-41 -41 -41 -109z" />
<glyph unicode="&#xe1;" horiz-adv-x="954" d="M55 180q0 69 45 117q31 31 91 60t184 71l157 53v142q0 140 -43 180q-32 37 -110 37q-56 0 -94 -23l55 -174q-22 -16 -82 -33.5t-102 -17.5q-93 0 -93 63q0 43 74 117q79 79 197.5 145t214.5 66q137 0 203 -63q63 -66 63 -228v-467q0 -73 33 -106q23 -23 57 -23 q31 0 68 25l6 -8q-34 -52 -101 -98t-145 -46q-70 0 -123 37.5t-73 106.5l-7 2l-32 -27q-69 -59 -121.5 -85t-118.5 -26q-90 0 -146.5 61.5t-56.5 141.5zM338 262q0 -68 33.5 -107.5t81.5 -39.5q40 0 79 22v320q-45 -20 -65 -29.5t-45 -24.5t-43 -32q-41 -41 -41 -109z M397 1087q37 63 111 203l74 152q17 35 22.5 46t22 36.5t28.5 35t33 18.5t45 9q58 0 99.5 -41t41.5 -92q0 -42 -24 -75t-82 -68l-152 -92q-94 -60 -208 -138z" />
<glyph unicode="&#xe2;" horiz-adv-x="954" d="M55 180q0 69 45 117q31 31 91 60t184 71l157 53v142q0 140 -43 180q-32 37 -110 37q-56 0 -94 -23l55 -174q-22 -16 -82 -33.5t-102 -17.5q-93 0 -93 63q0 43 74 117q79 79 197.5 145t214.5 66q137 0 203 -63q63 -66 63 -228v-467q0 -73 33 -106q23 -23 57 -23 q31 0 68 25l6 -8q-34 -52 -101 -98t-145 -46q-70 0 -123 37.5t-73 106.5l-7 2l-32 -27q-69 -59 -121.5 -85t-118.5 -26q-90 0 -146.5 61.5t-56.5 141.5zM195 1087l309 506h12l309 -506l-12 -6l-307 209l-301 -209zM338 262q0 -68 33.5 -107.5t81.5 -39.5q40 0 79 22v320 q-45 -20 -65 -29.5t-45 -24.5t-43 -32q-41 -41 -41 -109z" />
<glyph unicode="&#xe3;" horiz-adv-x="954" d="M55 180q0 69 45 117q31 31 91 60t184 71l157 53v142q0 140 -43 180q-32 37 -110 37q-56 0 -94 -23l55 -174q-22 -16 -82 -33.5t-102 -17.5q-93 0 -93 63q0 43 74 117q79 79 197.5 145t214.5 66q137 0 203 -63q63 -66 63 -228v-467q0 -73 33 -106q23 -23 57 -23 q31 0 68 25l6 -8q-34 -52 -101 -98t-145 -46q-70 0 -123 37.5t-73 106.5l-7 2l-32 -27q-69 -59 -121.5 -85t-118.5 -26q-90 0 -146.5 61.5t-56.5 141.5zM162 1085q29 191 80 277t131 86q11 0 22.5 -1.5t25.5 -6.5t23.5 -8.5t28.5 -13t26.5 -13t32 -16.5t31.5 -17 q112 -61 152 -61q37 0 68 39t63 114l12 -4q-29 -191 -80 -276.5t-131 -85.5q-25 0 -58 11.5t-57 24t-75 40.5q-112 61 -152 61q-37 0 -67.5 -39.5t-63.5 -114.5zM338 262q0 -68 33.5 -107.5t81.5 -39.5q40 0 79 22v320q-45 -20 -65 -29.5t-45 -24.5t-43 -32 q-41 -41 -41 -109z" />
<glyph unicode="&#xe4;" horiz-adv-x="954" d="M55 180q0 69 45 117q31 31 91 60t184 71l157 53v142q0 140 -43 180q-32 37 -110 37q-56 0 -94 -23l55 -174q-22 -16 -82 -33.5t-102 -17.5q-93 0 -93 63q0 43 74 117q79 79 197.5 145t214.5 66q137 0 203 -63q63 -66 63 -228v-467q0 -73 33 -106q23 -23 57 -23 q31 0 68 25l6 -8q-34 -52 -101 -98t-145 -46q-70 0 -123 37.5t-73 106.5l-7 2l-32 -27q-69 -59 -121.5 -85t-118.5 -26q-90 0 -146.5 61.5t-56.5 141.5zM168 1225q0 60 46.5 105.5t113.5 45.5q61 0 101 -42t40 -101q0 -64 -43.5 -108t-108.5 -44q-62 0 -105.5 42.5 t-43.5 101.5zM338 262q0 -68 33.5 -107.5t81.5 -39.5q40 0 79 22v320q-45 -20 -65 -29.5t-45 -24.5t-43 -32q-41 -41 -41 -109zM555 1225q0 64 43.5 107.5t110.5 43.5q60 0 103.5 -41.5t43.5 -101.5q0 -61 -46.5 -106.5t-111.5 -45.5q-62 0 -102.5 43t-40.5 101z" />
<glyph unicode="&#xe5;" horiz-adv-x="954" d="M55 180q0 69 45 117q31 31 91 60t184 71l157 53v142q0 140 -43 180q-32 37 -110 37q-56 0 -94 -23l55 -174q-22 -16 -82 -33.5t-102 -17.5q-93 0 -93 63q0 43 74 117q79 79 197.5 145t214.5 66q137 0 203 -63q63 -66 63 -228v-467q0 -73 33 -106q23 -23 57 -23 q31 0 68 25l6 -8q-34 -52 -101 -98t-145 -46q-70 0 -123 37.5t-73 106.5l-7 2l-32 -27q-69 -59 -121.5 -85t-118.5 -26q-90 0 -146.5 61.5t-56.5 141.5zM305 1286q0 83 60 143t145 60t145 -60t60 -143q0 -86 -60 -145.5t-145 -59.5t-145 59.5t-60 145.5zM338 262 q0 -68 33.5 -107.5t81.5 -39.5q40 0 79 22v320q-45 -20 -65 -29.5t-45 -24.5t-43 -32q-41 -41 -41 -109zM354 1286q0 -67 45.5 -113.5t110.5 -46.5t110.5 46.5t45.5 113.5q0 66 -45.5 112t-110.5 46t-110.5 -46t-45.5 -112z" />
<glyph unicode="&#xe6;" horiz-adv-x="1431" d="M55 180q0 69 45 117q31 31 91 60t184 71l157 53v142q0 140 -43 180q-32 37 -110 37q-56 0 -94 -23l55 -174q-22 -16 -82 -33.5t-102 -17.5q-93 0 -93 63q0 43 74 117q79 79 197.5 145t214.5 66q81 0 123 -29t65 -82q48 45 119.5 73t155.5 28q173 0 276 -86.5t103 -214.5 q0 -39 -9 -66l-581 2v-35q0 -200 88.5 -303.5t240.5 -103.5q164 0 265 113l10 -9q-61 -142 -172.5 -222.5t-259.5 -80.5q-113 0 -208 51t-155 144q-5 -4 -15 -13q-46 -40 -73 -61.5t-72 -51.5t-88.5 -44.5t-87.5 -14.5q-101 0 -160 61.5t-59 141.5zM338 264q0 -67 36.5 -107 t86.5 -40q61 0 141 59q-70 118 -70 281q-45 -20 -65 -29.5t-45 -24.5t-43 -32q-41 -41 -41 -107zM805 643l69 2q239 6 265 19q3 105 -36.5 184.5t-109.5 79.5q-50 0 -94 -41q-78 -78 -94 -244z" />
<glyph unicode="&#xe7;" horiz-adv-x="915" d="M45 449q0 139 62.5 257.5t184 192.5t277.5 74q144 0 231 -51.5t87 -135.5q0 -57 -42 -96t-91 -39q-21 0 -36.5 11.5t-39.5 46.5l-115 188q-17 23 -26.5 30t-24.5 7q-68 0 -132.5 -101.5t-64.5 -271.5q0 -195 97.5 -309.5t242.5 -114.5q121 0 219 88l7 -10 q-61 -112 -155 -176.5t-212 -71.5l-74 -88q87 -12 147 -37t87.5 -57t38 -59.5t10.5 -57.5q0 -106 -92.5 -170.5t-241.5 -64.5q-96 0 -170 30l4 21q74 -19 129 -19q92 0 141.5 36t49.5 96q0 57 -55 90.5t-203 44.5v6l190 229q-131 4 -230.5 72t-149.5 175.5t-50 234.5z" />
<glyph unicode="&#xe8;" horiz-adv-x="948" d="M45 444q0 148 62.5 269t173 190.5t245.5 69.5q174 0 277.5 -87.5t103.5 -215.5q0 -36 -8 -60l-582 2v-37q0 -200 88.5 -304.5t239.5 -104.5q162 0 266 113l9 -7q-61 -143 -173 -224t-258 -81q-135 0 -237.5 66t-154.5 173.5t-52 237.5zM162 1454q0 51 41.5 92t101.5 41 q24 0 45 -9t33.5 -19t28.5 -34.5t22.5 -37t22.5 -45.5l73 -152q78 -148 109 -203l-8 -6q-118 79 -211 138l-152 92q-57 35 -81.5 68.5t-24.5 74.5zM319 639q290 5 334 23q2 70 -13.5 131.5t-49.5 102t-80 40.5q-53 0 -96 -43q-79 -79 -95 -254z" />
<glyph unicode="&#xe9;" horiz-adv-x="948" d="M45 444q0 148 62.5 269t173 190.5t245.5 69.5q174 0 277.5 -87.5t103.5 -215.5q0 -36 -8 -60l-582 2v-37q0 -200 88.5 -304.5t239.5 -104.5q162 0 266 113l9 -7q-61 -143 -173 -224t-258 -81q-135 0 -237.5 66t-154.5 173.5t-52 237.5zM319 639q290 5 334 23 q2 70 -13.5 131.5t-49.5 102t-80 40.5q-53 0 -96 -43q-79 -79 -95 -254zM406 1087q26 45 110 203l74 152q17 35 22.5 46t22 36.5t28.5 35t33 18.5t45 9q58 0 100 -41t42 -92q0 -42 -24.5 -75t-82.5 -68l-151 -92q-106 -67 -209 -138z" />
<glyph unicode="&#xea;" horiz-adv-x="948" d="M45 444q0 148 62.5 269t173 190.5t245.5 69.5q174 0 277.5 -87.5t103.5 -215.5q0 -36 -8 -60l-582 2v-37q0 -200 88.5 -304.5t239.5 -104.5q162 0 266 113l9 -7q-61 -143 -173 -224t-258 -81q-135 0 -237.5 66t-154.5 173.5t-52 237.5zM203 1087l309 506h12l310 -506 l-13 -6l-307 209l-301 -209zM319 639q290 5 334 23q2 70 -13.5 131.5t-49.5 102t-80 40.5q-53 0 -96 -43q-79 -79 -95 -254z" />
<glyph unicode="&#xeb;" horiz-adv-x="948" d="M45 444q0 148 62.5 269t173 190.5t245.5 69.5q174 0 277.5 -87.5t103.5 -215.5q0 -36 -8 -60l-582 2v-37q0 -200 88.5 -304.5t239.5 -104.5q162 0 266 113l9 -7q-61 -143 -173 -224t-258 -81q-135 0 -237.5 66t-154.5 173.5t-52 237.5zM176 1225q0 60 46.5 105.5 t113.5 45.5q61 0 101 -42t40 -101q0 -64 -43 -108t-108 -44q-63 0 -106.5 42.5t-43.5 101.5zM319 639q290 5 334 23q2 70 -13.5 131.5t-49.5 102t-80 40.5q-53 0 -96 -43q-79 -79 -95 -254zM563 1225q0 64 43.5 107.5t110.5 43.5q60 0 103.5 -41.5t43.5 -101.5 q0 -61 -46 -106.5t-111 -45.5q-62 0 -103 43t-41 101z" />
<glyph unicode="&#xec;" horiz-adv-x="536" d="M-78 1454q0 51 42 92t102 41q24 0 45 -9t33 -18.5t28.5 -35t22 -36.5t22.5 -46l74 -152q97 -184 108 -203l-8 -6q-118 79 -211 138l-151 92q-57 35 -82 68.5t-25 74.5zM41 0v16l33 7q37 6 46 14.5t9 34.5v641q0 46 -23 75l-59 66v6l375 127l4 -6q-6 -82 -6 -152v-757 q0 -25 10 -34t47 -15l31 -7v-16h-467z" />
<glyph unicode="&#xed;" horiz-adv-x="536" d="M41 0v16l33 7q37 6 46 14.5t9 34.5v641q0 46 -23 75l-59 66v6l375 127l4 -6q-6 -82 -6 -152v-757q0 -25 10 -34t47 -15l31 -7v-16h-467zM166 1087q26 45 110 203l74 152q16 33 22.5 45.5t22.5 37t28.5 34.5t33.5 19t45 9q58 0 99.5 -41t41.5 -92q0 -42 -24 -75t-82 -68 l-152 -92q-106 -67 -209 -138z" />
<glyph unicode="&#xee;" horiz-adv-x="536" d="M-37 1087l309 506h13l309 -506l-12 -6l-308 209l-301 -209zM41 0v16l33 7q37 6 46 14.5t9 34.5v641q0 46 -23 75l-59 66v6l375 127l4 -6q-6 -82 -6 -152v-757q0 -25 10 -34t47 -15l31 -7v-16h-467z" />
<glyph unicode="&#xef;" horiz-adv-x="536" d="M-66 1225q0 60 46.5 105.5t113.5 45.5q61 0 101.5 -42t40.5 -101q0 -64 -43.5 -108t-108.5 -44q-63 0 -106.5 42.5t-43.5 101.5zM41 0v16l33 7q37 6 46 14.5t9 34.5v641q0 46 -23 75l-59 66v6l375 127l4 -6q-6 -82 -6 -152v-757q0 -25 10 -34t47 -15l31 -7v-16h-467z M322 1225q0 64 43 107.5t110 43.5q60 0 104 -41.5t44 -101.5q0 -61 -46.5 -106.5t-111.5 -45.5q-62 0 -102.5 43t-40.5 101z" />
<glyph unicode="&#xf0;" horiz-adv-x="1067" d="M45 457q0 142 59 259t170.5 187t255.5 70q53 0 109 -17q-60 172 -162 291l-211 -135l-18 29l205 131q-103 109 -240 166l4 22q192 -30 348 -117l211 136l19 -29l-195 -125q196 -119 307 -311.5t111 -427.5q0 -141 -40.5 -258.5t-109.5 -196t-160 -121.5t-192 -43 q-144 0 -252.5 67t-163.5 177.5t-55 245.5zM350 475q0 -124 18.5 -227t62.5 -172.5t106 -69.5q33 0 61 22.5t54.5 74t41.5 151.5t15 238q0 240 -60 432q-24 8 -53 8q-46 0 -88 -25.5t-78.5 -77.5t-58 -143.5t-21.5 -210.5z" />
<glyph unicode="&#xf1;" horiz-adv-x="1097" d="M41 0v16l33 7q36 6 45.5 14t9.5 33v641q0 49 -23 75l-59 68v6l381 129l4 -6q-8 -110 -8 -131l-2 -59l8 -5q95 97 175.5 141t162.5 44q91 0 152 -58q32 -34 46.5 -77t14.5 -129v-641q0 -25 9 -32t48 -13l31 -7v-16h-457v16l31 7q32 4 40.5 12.5t8.5 32.5v518 q0 138 -37 178q-36 33 -102 33q-61 0 -133 -37v-692q0 -24 8.5 -32.5t38.5 -12.5l33 -7v-16h-459zM240 1085q29 191 80 277t131 86q11 0 22.5 -1.5t25.5 -6.5t23.5 -8.5t28.5 -13t26.5 -13t32 -16.5t31.5 -17q112 -61 152 -61q37 0 68 39t63 114l12 -4q-29 -191 -80 -276.5 t-131 -85.5q-25 0 -58 11.5t-57 24t-75 40.5q-112 61 -152 61q-37 0 -67.5 -39.5t-63.5 -114.5z" />
<glyph unicode="&#xf2;" horiz-adv-x="1089" d="M45 463q0 110 39 204.5t106 161.5q144 144 365 144q113 0 207 -41.5t154.5 -111t94 -158t33.5 -183.5q0 -112 -39 -206.5t-106 -161.5q-144 -144 -364 -144q-113 0 -207 41.5t-155 111t-94.5 158.5t-33.5 185zM188 1454q0 51 42 92t102 41q24 0 45 -9t33 -18.5t28.5 -35 t22 -36.5t22.5 -46l74 -152q78 -148 109 -203l-9 -6q-118 79 -211 138l-151 92q-57 35 -82 68.5t-25 74.5zM350 494q0 -126 24 -236t72 -182t111 -72q77 0 127 98q53 106 53 347q0 125 -23.5 235t-71.5 181t-110 71q-78 0 -126 -98q-56 -112 -56 -344z" />
<glyph unicode="&#xf3;" horiz-adv-x="1089" d="M45 463q0 110 39 204.5t106 161.5q144 144 365 144q113 0 207 -41.5t154.5 -111t94 -158t33.5 -183.5q0 -112 -39 -206.5t-106 -161.5q-144 -144 -364 -144q-113 0 -207 41.5t-155 111t-94.5 158.5t-33.5 185zM350 494q0 -126 24 -236t72 -182t111 -72q77 0 127 98 q53 106 53 347q0 125 -23.5 235t-71.5 181t-110 71q-78 0 -126 -98q-56 -112 -56 -344zM432 1087q37 63 111 203l73 152q16 33 22.5 45.5t22.5 37t28.5 34.5t33.5 19t45 9q58 0 99.5 -41t41.5 -92q0 -42 -24 -75t-82 -68l-152 -92q-106 -67 -209 -138z" />
<glyph unicode="&#xf4;" horiz-adv-x="1089" d="M45 463q0 110 39 204.5t106 161.5q144 144 365 144q113 0 207 -41.5t154.5 -111t94 -158t33.5 -183.5q0 -112 -39 -206.5t-106 -161.5q-144 -144 -364 -144q-113 0 -207 41.5t-155 111t-94.5 158.5t-33.5 185zM229 1087l310 506h12l309 -506l-12 -6l-307 209l-301 -209z M350 494q0 -126 24 -236t72 -182t111 -72q77 0 127 98q53 106 53 347q0 125 -23.5 235t-71.5 181t-110 71q-78 0 -126 -98q-56 -112 -56 -344z" />
<glyph unicode="&#xf5;" horiz-adv-x="1089" d="M45 463q0 110 39 204.5t106 161.5q144 144 365 144q113 0 207 -41.5t154.5 -111t94 -158t33.5 -183.5q0 -112 -39 -206.5t-106 -161.5q-144 -144 -364 -144q-113 0 -207 41.5t-155 111t-94.5 158.5t-33.5 185zM197 1085q29 191 80 277t131 86q11 0 22.5 -1.5t25.5 -6.5 t23.5 -8.5t28.5 -13t26.5 -13t32 -16.5t31.5 -17q112 -61 152 -61q37 0 68 39t63 114l12 -4q-29 -191 -80 -276.5t-131 -85.5q-25 0 -58 11.5t-57 24t-75 40.5q-112 61 -152 61q-37 0 -67.5 -39.5t-63.5 -114.5zM350 494q0 -126 24 -236t72 -182t111 -72q77 0 127 98 q53 106 53 347q0 125 -23.5 235t-71.5 181t-110 71q-78 0 -126 -98q-56 -112 -56 -344z" />
<glyph unicode="&#xf6;" horiz-adv-x="1089" d="M45 463q0 110 39 204.5t106 161.5q144 144 365 144q113 0 207 -41.5t154.5 -111t94 -158t33.5 -183.5q0 -112 -39 -206.5t-106 -161.5q-144 -144 -364 -144q-113 0 -207 41.5t-155 111t-94.5 158.5t-33.5 185zM203 1225q0 60 46 105.5t113 45.5q61 0 101.5 -42t40.5 -101 q0 -64 -43.5 -108t-108.5 -44q-62 0 -105.5 42.5t-43.5 101.5zM350 494q0 -126 24 -236t72 -182t111 -72q77 0 127 98q53 106 53 347q0 125 -23.5 235t-71.5 181t-110 71q-78 0 -126 -98q-56 -112 -56 -344zM590 1225q0 64 43 107.5t110 43.5q60 0 104 -41.5t44 -101.5 q0 -61 -46.5 -106.5t-111.5 -45.5q-62 0 -102.5 43t-40.5 101z" />
<glyph unicode="&#xf7;" horiz-adv-x="1105" d="M102 471v45h902v-45h-902zM420 190q0 56 38 96t93 40q60 0 97.5 -35.5t37.5 -87.5q0 -55 -38.5 -94t-96.5 -39t-94.5 34t-36.5 86zM420 782q0 56 38.5 96t98.5 40q56 0 92.5 -34.5t36.5 -88.5t-37.5 -93.5t-91.5 -39.5q-61 0 -99 35.5t-38 84.5z" />
<glyph unicode="&#xf8;" horiz-adv-x="1089" d="M45 463q0 110 39 204.5t106 161.5q144 144 365 144q178 0 311 -105l113 129l29 -24l-115 -129q73 -70 112 -165.5t39 -199.5q0 -112 -39 -206.5t-106 -161.5q-144 -144 -364 -144q-179 0 -312 105l-112 -129l-29 24l113 131q-71 68 -110.5 164.5t-39.5 200.5zM350 494 q0 -116 21 -218l336 435q-26 102 -71.5 163.5t-103.5 61.5q-78 0 -126 -98q-56 -112 -56 -344zM381 229q28 -104 72.5 -164.5t103.5 -60.5q77 0 127 98q53 106 53 347q0 116 -20 213z" />
<glyph unicode="&#xf9;" horiz-adv-x="1095" d="M8 918v12l402 37l4 -6q-6 -81 -6 -173v-432q0 -72 7 -114t29 -64q33 -33 99 -33q55 0 131 39v627q0 44 -6 56.5t-31 23.5l-72 29v10l400 37l4 -6q-6 -81 -6 -177v-667q0 -37 10.5 -48t48.5 -10h49l2 -16l-407 -76l-4 4q1 8 6 76l4 103l-8 4q-95 -95 -175.5 -139 t-160.5 -44q-95 0 -148 56q-34 32 -48.5 75t-14.5 131v578q0 44 -6 56.5t-31 21.5zM188 1454q0 51 42 92t102 41q24 0 45 -9t33 -18.5t28.5 -35t22 -36.5t22.5 -46l74 -152q78 -148 109 -203l-9 -6q-118 79 -211 138l-151 92q-57 35 -82 68.5t-25 74.5z" />
<glyph unicode="&#xfa;" horiz-adv-x="1095" d="M8 918v12l402 37l4 -6q-6 -81 -6 -173v-432q0 -72 7 -114t29 -64q33 -33 99 -33q55 0 131 39v627q0 44 -6 56.5t-31 23.5l-72 29v10l400 37l4 -6q-6 -81 -6 -177v-667q0 -37 10.5 -48t48.5 -10h49l2 -16l-407 -76l-4 4q1 8 6 76l4 103l-8 4q-95 -95 -175.5 -139 t-160.5 -44q-95 0 -148 56q-34 32 -48.5 75t-14.5 131v578q0 44 -6 56.5t-31 21.5zM430 1087q37 63 111 203l73 152q16 33 22.5 45.5t22.5 37t28.5 34.5t33.5 19t45 9q58 0 99.5 -41t41.5 -92q0 -42 -24 -75t-82 -68l-152 -92q-106 -67 -209 -138z" />
<glyph unicode="&#xfb;" horiz-adv-x="1095" d="M8 918v12l402 37l4 -6q-6 -81 -6 -173v-432q0 -72 7 -114t29 -64q33 -33 99 -33q55 0 131 39v627q0 44 -6 56.5t-31 23.5l-72 29v10l400 37l4 -6q-6 -81 -6 -177v-667q0 -37 10.5 -48t48.5 -10h49l2 -16l-407 -76l-4 4q1 8 6 76l4 103l-8 4q-95 -95 -175.5 -139 t-160.5 -44q-95 0 -148 56q-34 32 -48.5 75t-14.5 131v578q0 44 -6 56.5t-31 21.5zM227 1087l310 506h12l309 -506l-12 -6l-307 209l-301 -209z" />
<glyph unicode="&#xfc;" horiz-adv-x="1095" d="M8 918v12l402 37l4 -6q-6 -81 -6 -173v-432q0 -72 7 -114t29 -64q33 -33 99 -33q55 0 131 39v627q0 44 -6 56.5t-31 23.5l-72 29v10l400 37l4 -6q-6 -81 -6 -177v-667q0 -37 10.5 -48t48.5 -10h49l2 -16l-407 -76l-4 4q1 8 6 76l4 103l-8 4q-95 -95 -175.5 -139 t-160.5 -44q-95 0 -148 56q-34 32 -48.5 75t-14.5 131v578q0 44 -6 56.5t-31 21.5zM201 1225q0 60 46 105.5t113 45.5q61 0 101.5 -42t40.5 -101q0 -64 -43.5 -108t-108.5 -44q-62 0 -105.5 42.5t-43.5 101.5zM588 1225q0 64 43 107.5t110 43.5q60 0 104 -41.5t44 -101.5 q0 -61 -46.5 -106.5t-111.5 -45.5q-62 0 -102.5 43t-40.5 101z" />
<glyph unicode="&#xfd;" horiz-adv-x="950" d="M-43 922v18h555v-18l-68 -11q-27 -5 -37 -10.5t-10 -19.5q0 -15 13 -52l184 -557h6l111 314q22 63 44.5 149.5t22.5 110.5q0 31 -76 61l-45 23v10h353v-10l-58 -31q-40 -21 -62 -45.5t-46 -85.5l-338 -831q-45 -109 -86 -187t-73 -121.5t-64.5 -68.5t-55.5 -32t-51 -7 q-64 0 -100.5 44.5t-36.5 106.5q0 54 26 89.5t64 35.5q18 0 41 -10l117 -41q20 -10 43 -10t49 42t67 136l-354 907q-19 50 -36.5 67t-51.5 25zM410 1087q26 45 110 203l74 152q17 35 22.5 46t22 36.5t28.5 35t33 18.5t45 9q58 0 100 -41t42 -92q0 -42 -24.5 -75t-82.5 -68 l-151 -92q-106 -67 -209 -138z" />
<glyph unicode="&#xfe;" horiz-adv-x="1105" d="M33 -442l33 6q36 6 45.5 14t9.5 33v1558q0 49 -23 78l-59 66v6l373 127l6 -4q-6 -86 -6 -154v-446l8 -4q64 67 136.5 101t141.5 34q161 0 262 -128t101 -337q0 -145 -60 -267t-173 -196t-255 -74q-79 0 -161 29v-389q0 -25 10 -33t49 -14l61 -6v-17h-499v17zM408 240 q-1 -120 39 -172t104 -52q86 0 147.5 114.5t61.5 307.5q0 183 -73 289.5t-177 106.5q-48 0 -98 -25z" />
<glyph unicode="&#xff;" horiz-adv-x="950" d="M-43 922v18h555v-18l-68 -11q-27 -5 -37 -10.5t-10 -19.5q0 -15 13 -52l184 -557h6l111 314q22 63 44.5 149.5t22.5 110.5q0 31 -76 61l-45 23v10h353v-10l-58 -31q-40 -21 -62 -45.5t-46 -85.5l-338 -831q-45 -109 -86 -187t-73 -121.5t-64.5 -68.5t-55.5 -32t-51 -7 q-64 0 -100.5 44.5t-36.5 106.5q0 54 26 89.5t64 35.5q18 0 41 -10l117 -41q20 -10 43 -10t49 42t67 136l-354 907q-19 50 -36.5 67t-51.5 25zM180 1225q0 60 46.5 105.5t113.5 45.5q61 0 101 -42t40 -101q0 -64 -43 -108t-108 -44q-63 0 -106.5 42.5t-43.5 101.5zM567 1225 q0 64 43.5 107.5t110.5 43.5q60 0 103.5 -41.5t43.5 -101.5q0 -61 -46 -106.5t-111 -45.5q-62 0 -103 43t-41 101z" />
<glyph unicode="&#x152;" horiz-adv-x="2084" d="M55 668q0 95 28 189.5t93.5 187.5t161.5 164t244 115t329 44h1051l-12 -399l-15 -4q-52 116 -82 170.5t-61 85.5q-82 82 -293 100l-158 10v-616l125 6q79 4 120 17.5t71 43.5q48 48 76 123l28 66l15 -4l-13 -537l-16 -2l-25 66q-40 99 -71 127q-26 26 -66 38.5t-117 16.5 l-127 6v-391q0 -151 13 -205q7 -30 25 -40.5t59 -10.5q77 0 170.5 17t142.5 42q55 27 90 64q45 45 182 254l15 -9l-80 -403h-1047q-407 0 -631.5 171t-224.5 497zM399 702q0 -223 80.5 -380.5t222.5 -227.5q126 -63 310 -63q4 27 4 166v974q0 139 -4 166h-58 q-96 -2 -159 -14t-119 -41q-137 -68 -207 -224t-70 -356z" />
<glyph unicode="&#x153;" horiz-adv-x="1669" d="M45 463q0 110 39 204.5t106 161.5q144 144 365 144q216 0 350 -158q138 158 348 158q170 0 272.5 -88t102.5 -215q0 -36 -8 -60l-582 2v-37q0 -200 88.5 -304.5t239.5 -104.5q168 0 266 113l8 -7q-61 -142 -170.5 -223.5t-246.5 -81.5q-102 0 -187 42.5t-139 119.5 q-140 -162 -362 -162q-113 0 -207 41.5t-155 111t-94.5 158.5t-33.5 185zM350 494q0 -126 24 -235.5t72 -181t111 -71.5q78 0 127 96q53 106 53 347q0 125 -23.5 235t-71.5 181t-110 71q-78 0 -126 -98q-56 -112 -56 -344zM1040 639q290 5 334 23q2 70 -13.5 131.5 t-49.5 102t-80 40.5q-53 0 -96 -43q-79 -79 -95 -254z" />
<glyph unicode="&#x178;" horiz-adv-x="1345" d="M-51 1350v18h751v-18l-59 -9q-62 -9 -83 -19.5t-21 -31.5q0 -22 45 -114l239 -500h4l158 334q39 76 66.5 149t27.5 101q0 20 -22 33.5t-90 35.5l-72 27v12h518v-12l-63 -25q-79 -30 -119.5 -70.5t-110.5 -162.5l-270 -471v-324q0 -157 14 -215q8 -31 26 -42.5t73 -18.5 l67 -9v-18h-684v18l66 9q56 7 73 18.5t25 42.5q14 58 14 215v113q0 77 -9.5 124.5t-41.5 108.5l-268 512q-59 110 -89 138t-104 40zM412 1642q0 62 46 108t113 46q59 0 100.5 -43t41.5 -102q0 -62 -44 -106t-108 -44t-106.5 41.5t-42.5 99.5zM821 1645q0 64 43.5 107.5 t110.5 43.5q62 0 105.5 -41.5t43.5 -101.5q0 -61 -46 -106.5t-111 -45.5q-63 0 -104.5 43.5t-41.5 100.5z" />
<glyph unicode="&#x2c6;" horiz-adv-x="1024" d="M197 1087l309 506h12l309 -506l-12 -6l-307 209l-301 -209z" />
<glyph unicode="&#x2dc;" horiz-adv-x="1024" d="M164 1085q29 191 80 277t131 86q11 0 22.5 -1.5t25.5 -6.5t23.5 -8.5t28.5 -13t26.5 -13t32 -16.5t31.5 -17q112 -61 152 -61q37 0 68 39t63 114l12 -4q-29 -191 -80 -276.5t-131 -85.5q-25 0 -58 11.5t-57 24t-75 40.5q-112 61 -152 61q-37 0 -67.5 -39.5t-63.5 -114.5z " />
<glyph unicode="&#x2000;" horiz-adv-x="966" />
<glyph unicode="&#x2001;" horiz-adv-x="1933" />
<glyph unicode="&#x2002;" horiz-adv-x="966" />
<glyph unicode="&#x2003;" horiz-adv-x="1933" />
<glyph unicode="&#x2004;" horiz-adv-x="644" />
<glyph unicode="&#x2005;" horiz-adv-x="483" />
<glyph unicode="&#x2006;" horiz-adv-x="322" />
<glyph unicode="&#x2007;" horiz-adv-x="322" />
<glyph unicode="&#x2008;" horiz-adv-x="241" />
<glyph unicode="&#x2009;" horiz-adv-x="386" />
<glyph unicode="&#x200a;" horiz-adv-x="107" />
<glyph unicode="&#x2010;" horiz-adv-x="692" d="M86 410v206h522v-206h-522z" />
<glyph unicode="&#x2011;" horiz-adv-x="692" d="M86 410v206h522v-206h-522z" />
<glyph unicode="&#x2012;" horiz-adv-x="692" d="M86 410v206h522v-206h-522z" />
<glyph unicode="&#x2013;" horiz-adv-x="1083" d="M102 489v50h879v-50h-879z" />
<glyph unicode="&#x2014;" horiz-adv-x="1636" d="M102 489v50h1432v-50h-1432z" />
<glyph unicode="&#x2018;" horiz-adv-x="497" d="M66 1032q0 145 100.5 242t267.5 119l4 -15q-126 -40 -177.5 -103t-51.5 -149q0 -34 7.5 -45.5t29.5 -11.5l55 2q38 1 64 -9t38.5 -28t17.5 -36.5t5 -39.5q0 -68 -45 -116.5t-125 -48.5q-76 0 -133 59.5t-57 179.5z" />
<glyph unicode="&#x2019;" horiz-adv-x="497" d="M59 807q126 40 178 103t52 149q0 34 -7.5 45.5t-29.5 11.5l-55 -2q-38 -1 -64 9t-38.5 28t-17.5 36.5t-5 39.5q0 68 45 117t125 49q76 0 133 -60t57 -180q0 -145 -100.5 -241.5t-268.5 -118.5z" />
<glyph unicode="&#x201a;" horiz-adv-x="477" d="M33 -287q126 40 177.5 103t51.5 149q0 34 -7.5 46t-29.5 12l-55 -3q-38 -1 -64 9t-38.5 28t-17.5 36.5t-5 39.5q0 68 45 117t125 49q76 0 133.5 -60t57.5 -180q0 -145 -100.5 -241.5t-268.5 -118.5z" />
<glyph unicode="&#x201c;" horiz-adv-x="901" d="M66 1032q0 146 96.5 242.5t261.5 118.5l4 -15q-126 -40 -173.5 -102t-47.5 -150q0 -34 7.5 -45.5t29.5 -11.5l49 2q38 1 64 -9t38.5 -28t17.5 -36.5t5 -39.5q0 -68 -43 -116.5t-123 -48.5q-75 0 -130.5 59t-55.5 180zM479 1032q0 146 97 242.5t262 118.5l4 -15 q-126 -40 -173.5 -102t-47.5 -150q0 -34 7 -45.5t29 -11.5l50 2q122 5 122 -113q0 -69 -42 -117t-123 -48q-74 0 -129.5 59.5t-55.5 179.5z" />
<glyph unicode="&#x201d;" horiz-adv-x="901" d="M59 807q127 40 175.5 102t48.5 150q0 33 -8.5 45t-30.5 12l-49 -2q-123 -5 -123 113q0 68 43 117t123 49q75 0 129.5 -59.5t54.5 -180.5q0 -145 -97 -241.5t-262 -118.5zM473 807q126 40 173.5 102t47.5 150q0 34 -7.5 45.5t-29.5 11.5l-49 -2q-123 -5 -123 113 q0 68 43 117t123 49q75 0 130 -59.5t55 -180.5q0 -145 -97 -241.5t-262 -118.5z" />
<glyph unicode="&#x201e;" horiz-adv-x="880" d="M33 -287q127 40 175 101.5t48 150.5q0 33 -8.5 45.5t-30.5 12.5l-49 -3q-123 -5 -123 113q0 68 43 117t123 49q75 0 129.5 -59.5t54.5 -180.5q0 -146 -96.5 -242t-261.5 -118zM446 -287q126 40 174 102t48 150q0 34 -7.5 46t-29.5 12l-49 -3q-123 -5 -123 113 q0 68 43 117t123 49q75 0 129.5 -59.5t54.5 -180.5q0 -146 -96.5 -242t-261.5 -118z" />
<glyph unicode="&#x2022;" horiz-adv-x="923" d="M160 557q0 126 92 212.5t221 86.5q125 0 208 -87t83 -212q0 -128 -89 -213.5t-218 -85.5q-125 0 -211 86t-86 213z" />
<glyph unicode="&#x2026;" horiz-adv-x="1501" d="M76 143q0 65 51 116.5t127 51.5q70 0 120 -49.5t50 -114.5q0 -70 -49 -118.5t-123 -48.5t-125 46.5t-51 116.5zM578 145q0 64 50.5 115t125.5 51q70 0 121 -50t51 -116q0 -68 -50 -116.5t-124 -48.5q-73 0 -123.5 47t-50.5 118zM1077 141q0 68 51.5 119t128.5 51 q69 0 118.5 -49t49.5 -117q0 -67 -49 -116t-123 -49q-75 0 -125.5 46.5t-50.5 114.5z" />
<glyph unicode="&#x202f;" horiz-adv-x="386" />
<glyph unicode="&#x2039;" horiz-adv-x="677" d="M43 487v13l545 387l10 -10l-260 -383l260 -383l-10 -11z" />
<glyph unicode="&#x203a;" horiz-adv-x="677" d="M80 111l260 383l-260 383l10 10l545 -387v-13l-545 -387z" />
<glyph unicode="&#x205f;" horiz-adv-x="483" />
<glyph unicode="&#x20ac;" horiz-adv-x="1288" d="M39 483v35h178q-2 14 -2 43q0 64 8 113h-184v35h190q30 145 111.5 261t210.5 185.5t283 69.5q166 0 265 -58t99 -149q0 -65 -46 -109.5t-101 -44.5q-24 0 -42 13.5t-40 52.5l-115 219q-13 25 -22.5 33t-34.5 8q-107 0 -196.5 -134t-98.5 -347h491v-35h-491v-2 q0 -88 14 -154h477v-35h-471q39 -160 145 -245.5t255 -85.5t260 100l10 -10q-163 -275 -442 -275q-151 0 -268 69.5t-182.5 184.5t-80.5 262h-180z" />
<glyph unicode="&#x2122;" horiz-adv-x="1378" d="M59 1196l37 195h8l7 -15q3 -8 7 -10t17 -2h404q31 0 39 14l4 13h8l4 -197l-8 -2l-19 38l-19.5 39t-15.5 27.5t-16 20.5q-20 24 -84 29l-33 2v-353q0 -55 4 -69q5 -20 50 -25l26 -6v-10h-293v10l27 6q25 3 35.5 8t13.5 17q4 14 4 69v353l-20 -2q-33 -2 -51.5 -8.5 t-36.5 -24.5q-19 -19 -92 -119zM629 885v8l26 10q33 12 43 25t13 49l24 332q-16 26 -59 43l-23 8v8h205q3 -23 31 -92l96 -221l86 209q27 68 31 104h207v-10l-15 -4q-42 -11 -50.5 -27t-6.5 -63l10 -283q3 -48 11 -61t36 -19l25 -6v-10h-254v10l22 6q24 6 29.5 16.5 t3.5 47.5l-14 319l-162 -403h-10l-184 395l2 -301q-1 -36 6.5 -47t42.5 -25l26 -10v-8h-198z" />
<glyph unicode="&#x25fc;" horiz-adv-x="942" d="M0 0v942h942v-942h-942z" />
</font>
</defs>
</svg>
